<?xml version="1.0" standalone="no"?>
<!DOCTYPE svg PUBLIC "-//W3C//DTD SVG 20010904//EN"
 "http://www.w3.org/TR/2001/REC-SVG-20010904/DTD/svg10.dtd">
<svg version="1.0" xmlns="http://www.w3.org/2000/svg"
 width="1084.000000pt" height="1210.000000pt" viewBox="0 0 1084.000000 1210.000000"
 preserveAspectRatio="xMidYMid meet">

<g transform="translate(0.000000,1210.000000) scale(0.100000,-0.100000)"
fill="#000000" stroke="none">
<path d="M3057 11900 c-7 -15 -13 -42 -42 -160 -8 -36 -19 -72 -24 -80 -5 -9
-12 -36 -16 -60 -4 -25 -11 -49 -15 -55 -4 -5 -11 -30 -15 -55 -4 -25 -11 -49
-15 -55 -4 -5 -12 -30 -18 -55 -6 -25 -20 -79 -31 -120 -11 -41 -25 -95 -31
-120 -6 -25 -15 -52 -19 -60 -5 -9 -12 -36 -16 -60 -4 -25 -11 -49 -15 -55 -4
-5 -12 -30 -18 -55 -6 -25 -18 -70 -26 -100 -9 -30 -23 -86 -33 -125 -10 -38
-21 -74 -25 -80 -3 -5 -9 -31 -13 -58 -4 -26 -11 -50 -16 -52 -4 -3 -11 -27
-15 -53 -3 -26 -10 -51 -14 -57 -4 -5 -13 -30 -18 -55 -25 -101 -47 -186 -54
-195 -3 -5 -9 -31 -13 -58 -4 -26 -11 -50 -16 -52 -4 -3 -11 -27 -15 -53 -3
-26 -10 -51 -14 -57 -4 -5 -11 -26 -14 -45 -4 -19 -11 -44 -16 -55 -5 -11 -13
-40 -19 -65 -23 -102 -43 -176 -51 -191 -5 -9 -11 -37 -15 -63 -4 -25 -11 -48
-15 -51 -5 -3 -11 -24 -15 -48 -4 -23 -11 -46 -15 -52 -4 -5 -11 -30 -15 -55
-4 -25 -11 -49 -15 -55 -5 -5 -14 -39 -20 -75 -7 -36 -16 -69 -20 -75 -5 -5
-11 -31 -15 -57 -4 -27 -11 -48 -15 -48 -4 0 -10 -18 -14 -40 -4 -26 -11 -40
-21 -40 -11 0 -15 12 -15 48 0 30 -3 42 -9 33 -7 -10 -13 -11 -30 -2 -14 8
-21 8 -21 1 0 -6 11 -15 25 -20 44 -17 30 -80 -18 -80 -17 0 -27 -3 -23 -7 4
-5 20 -8 34 -8 23 0 28 -6 36 -38 18 -70 13 -72 -191 -75 l-181 -2 -11 -45
c-19 -76 -15 -99 29 -144 22 -22 45 -41 51 -41 6 0 24 10 39 23 24 21 37 23
111 22 79 0 84 -2 87 -23 2 -13 -1 -28 -6 -35 -6 -7 -13 -30 -17 -52 -4 -22
-11 -44 -15 -50 -4 -5 -11 -30 -15 -55 -4 -24 -11 -51 -16 -60 -8 -16 -20 -61
-47 -175 -10 -38 -20 -75 -24 -80 -3 -6 -9 -28 -13 -50 -4 -22 -11 -44 -15
-50 -4 -5 -11 -30 -15 -55 -4 -25 -11 -49 -15 -55 -4 -5 -11 -30 -15 -55 -4
-24 -11 -51 -16 -60 -9 -15 -33 -105 -53 -195 -6 -27 -14 -54 -17 -60 -4 -5
-10 -26 -13 -45 -4 -19 -11 -44 -16 -55 -4 -11 -14 -40 -20 -65 -6 -25 -18
-67 -25 -95 -15 -54 -47 -173 -65 -245 -6 -25 -15 -52 -19 -60 -5 -9 -12 -36
-16 -60 -4 -25 -11 -49 -15 -55 -4 -5 -12 -30 -18 -55 -6 -25 -18 -70 -26
-100 -9 -30 -23 -86 -33 -125 -10 -38 -21 -74 -25 -80 -3 -5 -9 -31 -13 -58
-4 -26 -11 -50 -16 -52 -4 -3 -11 -27 -15 -53 -3 -26 -10 -51 -14 -57 -4 -5
-13 -30 -18 -55 -24 -100 -47 -186 -53 -195 -4 -5 -10 -30 -14 -55 -4 -25 -11
-49 -15 -55 -4 -5 -12 -30 -18 -55 -6 -25 -18 -72 -27 -105 -9 -33 -22 -82
-30 -110 -7 -27 -18 -63 -24 -78 -14 -36 -15 -229 -1 -207 5 8 10 51 10 95 1
85 3 101 43 235 14 47 29 103 32 125 4 22 11 45 15 50 4 6 12 30 18 55 19 82
34 135 42 155 5 11 13 40 19 65 23 102 43 176 51 191 5 9 11 37 15 63 4 25 11
48 15 51 5 3 11 24 15 48 4 23 11 47 15 52 4 6 11 30 15 55 4 24 11 51 16 60
9 16 35 113 50 190 6 25 14 52 19 61 5 9 12 34 16 55 3 22 10 44 14 49 4 6 11
30 15 55 4 24 11 51 16 60 9 15 34 110 51 190 5 25 13 54 18 65 5 11 14 38 19
60 21 86 33 131 41 150 5 11 13 40 19 65 6 25 20 79 32 120 11 41 26 98 33
125 6 28 14 55 18 60 3 6 9 28 13 50 4 22 11 45 15 50 4 6 11 30 15 55 4 25
11 50 15 55 4 6 12 30 18 55 6 25 20 79 31 120 11 41 25 95 31 120 6 25 15 52
19 60 5 9 12 35 16 58 7 43 7 43 31 28 31 -21 38 -20 70 9 15 14 31 25 36 25
5 0 7 39 6 88 l-3 87 -35 5 c-39 6 -40 11 -14 88 8 23 14 51 14 60 0 25 20 42
48 42 19 0 22 -4 17 -22 -4 -13 -20 -36 -37 -51 -16 -16 -28 -31 -25 -34 10
-9 46 17 63 46 l18 30 36 -41 c24 -27 41 -39 49 -34 9 6 5 13 -15 27 -25 16
-53 53 -54 72 0 4 15 8 33 8 l32 2 -35 6 c-29 5 -36 11 -38 34 -4 33 -22 26
-22 -9 0 -19 -5 -24 -25 -24 -24 0 -26 2 -19 38 4 20 10 42 14 47 4 6 12 30
18 55 6 25 18 70 26 100 9 30 23 87 33 125 10 39 21 75 24 80 4 6 10 30 14 55
4 25 11 50 15 55 4 6 11 26 15 45 4 19 13 55 20 80 7 25 23 83 35 130 12 47
26 92 30 100 4 9 11 36 15 60 4 25 11 50 15 55 4 6 12 30 18 55 6 25 18 72 27
105 9 33 23 87 31 120 8 33 18 67 23 76 5 9 12 37 16 63 4 25 11 49 16 51 4 3
11 27 15 53 3 26 10 52 14 57 4 6 12 30 18 55 6 25 20 79 32 120 34 120 50
182 61 230 5 25 14 52 18 60 5 9 12 31 15 50 4 19 11 44 16 55 5 11 13 40 19
65 23 100 43 176 51 190 4 9 11 36 15 60 4 25 11 50 15 55 4 6 12 30 18 55 21
91 34 135 41 150 5 9 12 31 15 50 4 19 14 56 22 82 15 46 15 103 1 68z m-850
-3057 c-3 -10 -5 -4 -5 12 0 17 2 24 5 18 2 -7 2 -21 0 -30z m-317 -158 c0
-10 -10 -15 -27 -15 -27 1 -27 1 -9 15 25 19 36 19 36 0z m90 -6 c0 -5 -9 -9
-20 -9 -22 0 -27 16 -7 23 15 5 27 -1 27 -14z m84 6 c4 -11 -2 -15 -21 -15
-21 0 -24 2 -13 15 7 8 16 15 20 15 4 0 10 -7 14 -15z m86 0 c0 -8 -9 -15 -20
-15 -22 0 -27 15 -7 23 21 9 27 7 27 -8z m90 0 c0 -8 -9 -15 -20 -15 -22 0
-27 15 -7 23 21 9 27 7 27 -8z"/>
<path d="M3348 11837 c-16 -38 -7 -141 15 -182 24 -43 85 -90 130 -100 16 -4
40 -13 55 -21 15 -8 34 -14 43 -14 9 0 19 -3 22 -6 9 -9 119 -54 132 -54 6 0
21 -6 35 -13 14 -7 48 -21 75 -31 28 -10 64 -24 80 -32 17 -7 59 -25 95 -39
36 -14 79 -33 97 -41 17 -8 38 -14 47 -14 9 0 16 -4 16 -10 0 -5 5 -10 11 -10
6 0 25 -6 42 -14 18 -8 61 -27 97 -41 216 -89 307 -142 440 -254 14 -11 30
-24 35 -28 6 -5 36 -30 67 -56 54 -46 62 -49 150 -63 273 -41 452 -75 465 -86
9 -7 52 -18 97 -25 45 -7 124 -19 176 -28 52 -9 133 -23 180 -31 47 -8 123
-21 170 -28 152 -24 204 -37 293 -72 92 -37 160 -46 252 -35 44 5 129 0 205
-14 14 -2 52 -7 85 -11 74 -8 84 1 107 101 10 39 31 126 47 195 17 69 35 145
40 170 5 25 14 63 20 86 6 23 12 57 15 77 2 19 13 73 24 119 11 45 30 125 43
176 12 51 20 94 17 97 -2 3 -40 12 -84 21 -94 19 -153 31 -339 72 -241 54
-329 73 -375 82 -25 5 -160 34 -300 65 -140 31 -279 60 -308 66 l-52 10 -178
-130 c-244 -179 -248 -182 -275 -221 -13 -19 -45 -66 -72 -105 -93 -133 -112
-160 -156 -225 -25 -36 -76 -110 -114 -165 -37 -55 -71 -104 -75 -108 -4 -4
-71 44 -150 107 -156 125 -255 180 -480 271 -36 14 -74 30 -85 35 -11 5 -42
18 -70 30 -27 12 -64 28 -82 36 -17 8 -38 14 -47 14 -9 0 -16 4 -16 9 0 5 -14
12 -31 16 -29 7 -75 25 -156 61 -17 8 -37 14 -45 14 -8 0 -18 3 -21 6 -9 9
-119 54 -132 54 -5 0 -22 6 -37 14 -15 8 -41 17 -59 21 -45 10 -123 60 -146
93 -13 19 -19 52 -23 117 -3 54 -8 83 -12 72z"/>
<path d="M7377 11743 c-11 -10 -8 -53 3 -53 6 0 10 14 10 30 0 31 -2 35 -13
23z"/>
<path d="M7358 11655 c-4 -16 -14 -66 -23 -110 -8 -44 -19 -87 -24 -96 -5 -9
-12 -41 -16 -73 -4 -31 -11 -58 -15 -61 -5 -3 -11 -29 -15 -58 -4 -28 -11 -56
-15 -62 -4 -5 -11 -35 -15 -65 -4 -30 -11 -59 -15 -65 -4 -5 -12 -35 -18 -65
-6 -30 -20 -95 -32 -145 -12 -49 -27 -117 -34 -150 -7 -33 -15 -67 -19 -75 -3
-8 -10 -39 -15 -67 -10 -59 5 -97 35 -86 14 5 13 8 -5 14 -18 7 -22 17 -22 48
0 22 4 42 9 45 5 4 12 30 16 59 4 28 10 57 14 62 3 6 11 35 18 65 6 30 21 96
33 145 11 50 25 115 31 145 5 30 14 62 19 71 4 9 12 38 15 65 4 27 11 54 15
59 4 6 11 35 15 65 4 30 11 60 15 65 4 6 12 35 18 65 6 30 18 86 27 125 9 38
14 79 12 90 -2 15 -4 13 -9 -10z"/>
<path d="M3293 11439 c-41 -20 -93 -82 -93 -110 0 -8 -4 -19 -9 -24 -8 -9 -28
-80 -35 -125 -1 -9 -5 -20 -8 -25 -3 -6 -9 -30 -13 -55 -4 -25 -11 -49 -15
-55 -4 -5 -12 -30 -18 -55 -21 -91 -34 -135 -41 -150 -5 -9 -12 -36 -16 -60
-4 -25 -11 -49 -15 -55 -5 -5 -14 -39 -20 -75 -7 -36 -16 -69 -20 -75 -5 -5
-11 -31 -15 -58 -4 -26 -11 -50 -16 -52 -4 -3 -11 -27 -15 -53 -3 -26 -10 -51
-14 -57 -4 -5 -12 -30 -18 -55 -6 -25 -18 -70 -26 -100 -9 -30 -23 -86 -33
-125 -10 -38 -21 -74 -24 -80 -4 -5 -10 -30 -14 -55 -4 -24 -11 -51 -16 -60
-4 -8 -13 -35 -19 -60 -6 -25 -18 -70 -27 -100 -8 -30 -22 -86 -31 -125 -10
-38 -20 -74 -23 -80 -4 -5 -10 -29 -14 -52 -4 -24 -10 -45 -15 -48 -4 -3 -11
-26 -15 -52 -4 -27 -10 -52 -15 -58 -4 -5 -11 -28 -14 -50 -4 -22 -14 -60 -22
-85 -8 -25 -22 -73 -31 -107 l-17 -63 -58 0 c-32 0 -58 -4 -58 -10 0 -5 14
-10 31 -10 35 0 36 -23 1 -28 -12 -2 -22 -6 -23 -10 -6 -42 -5 -113 2 -118 5
-3 9 0 9 5 0 11 32 15 42 6 6 -6 -8 -78 -22 -110 -5 -11 -13 -40 -19 -65 -19
-83 -46 -185 -52 -195 -4 -5 -10 -30 -14 -55 -4 -25 -11 -49 -15 -55 -4 -5
-11 -30 -15 -55 -4 -25 -11 -49 -15 -55 -4 -5 -12 -30 -18 -55 -6 -25 -21 -81
-32 -125 -12 -44 -27 -102 -34 -130 -7 -27 -15 -57 -19 -65 -4 -8 -11 -33 -16
-55 -22 -91 -33 -131 -42 -150 -8 -19 -29 -101 -50 -195 -5 -25 -14 -52 -18
-60 -5 -9 -12 -36 -16 -60 -4 -25 -11 -49 -15 -55 -4 -5 -12 -30 -18 -55 -12
-48 -28 -108 -62 -230 -11 -41 -25 -95 -31 -120 -5 -25 -14 -52 -18 -60 -5 -9
-12 -36 -16 -60 -4 -25 -11 -49 -15 -55 -4 -5 -12 -30 -18 -55 -6 -25 -20 -81
-32 -125 -34 -125 -48 -176 -60 -225 -6 -25 -15 -52 -19 -60 -5 -9 -12 -36
-16 -60 -4 -24 -11 -51 -16 -60 -4 -8 -13 -35 -19 -60 -6 -25 -20 -79 -31
-120 -11 -41 -24 -95 -30 -120 -5 -25 -14 -52 -19 -61 -5 -9 -12 -34 -16 -55
-3 -22 -10 -43 -14 -49 -4 -5 -11 -28 -14 -50 -4 -22 -15 -60 -23 -85 -17 -47
-35 -360 -21 -360 4 0 9 64 11 143 3 105 9 161 25 217 12 41 26 95 32 120 6
25 15 52 19 60 5 9 12 36 16 60 4 25 11 50 15 55 4 6 12 30 18 55 6 25 18 70
26 100 17 61 48 180 66 250 6 25 15 52 19 60 5 9 12 36 16 60 4 25 11 50 15
55 4 6 11 30 15 55 4 25 11 50 15 55 4 6 13 37 19 70 7 33 16 69 21 80 8 20
21 65 44 160 7 28 15 57 19 65 4 8 11 33 16 55 5 22 19 74 31 115 11 41 25 95
31 120 5 25 14 52 19 61 4 9 11 37 15 63 4 25 11 49 16 51 4 3 11 27 15 53 3
26 10 52 14 57 4 6 13 33 20 60 6 28 19 82 28 120 9 39 20 75 24 80 3 6 9 28
13 50 4 22 11 45 15 50 5 6 11 31 15 58 4 26 11 47 16 47 12 0 11 -16 -6 -101
-21 -101 -41 -204 -65 -334 -12 -60 -25 -128 -30 -150 -5 -22 -18 -89 -29
-150 -11 -60 -25 -135 -31 -165 -19 -93 -46 -283 -85 -610 -8 -63 -24 -187
-35 -275 -12 -88 -25 -198 -31 -245 -5 -47 -11 -96 -14 -110 -3 -14 -12 -86
-21 -160 -8 -74 -22 -184 -30 -245 -8 -60 -21 -186 -29 -280 -8 -93 -21 -240
-29 -325 -8 -85 -20 -204 -26 -265 -5 -60 -10 -188 -10 -282 l0 -173 -75 0
-75 0 0 -118 0 -119 75 5 75 5 0 -850 c0 -813 1 -851 18 -867 17 -15 61 -16
478 -14 l459 3 3 693 2 692 24 0 c14 0 28 6 33 13 4 6 10 -121 13 -283 5 -284
6 -278 8 163 1 315 5 457 13 457 6 0 19 -5 30 -10 14 -8 20 -7 21 2 2 7 5
-198 8 -457 5 -463 5 -470 25 -468 11 1 50 5 87 9 37 4 65 11 62 15 -8 13 -53
11 -106 -6 l-48 -14 0 613 0 612 30 22 c16 12 33 22 37 22 13 0 103 -110 103
-126 0 -16 -55 -20 -65 -4 -11 18 -38 11 -67 -16 -22 -22 -25 -30 -16 -47 6
-12 8 -49 6 -89 l-5 -68 41 1 c72 1 140 -2 156 -7 13 -3 16 -24 15 -122 0
-136 17 -206 72 -289 48 -74 130 -133 203 -148 19 -4 40 -11 45 -15 6 -4 23
-10 39 -14 76 -18 217 -147 262 -238 43 -86 46 -97 48 -169 l1 -74 -40 -3
c-28 -2 -67 8 -128 33 -49 19 -95 35 -103 35 -8 0 -14 4 -14 9 0 5 -16 12 -36
16 -20 3 -44 10 -53 15 -36 20 -161 50 -231 55 -41 3 -85 8 -97 11 -13 2 -23
0 -23 -5 0 -5 30 -11 68 -13 71 -5 220 -35 237 -48 6 -5 27 -11 48 -15 20 -4
40 -11 43 -16 3 -5 13 -9 22 -9 9 0 29 -7 44 -14 46 -24 181 -69 216 -72 50
-4 75 26 69 79 -8 61 -28 151 -35 157 -4 3 -17 26 -30 51 -49 97 -212 227
-308 245 -20 4 -49 13 -63 20 -14 8 -30 14 -34 14 -18 0 -97 68 -129 111 -50
68 -89 203 -84 289 5 78 26 201 38 223 7 14 6 23 -5 35 -9 9 -17 30 -19 47 -2
20 -9 31 -23 34 -21 4 -32 14 -107 102 l-47 55 20 20 c31 31 16 54 -35 54 -23
0 -47 5 -54 12 -9 9 -15 9 -24 0 -7 -7 -27 -12 -45 -12 l-33 0 0 94 c0 87 2
97 26 126 52 61 44 60 631 60 588 0 570 2 592 -62 22 -62 58 -58 -514 -58
-289 0 -525 -3 -525 -8 0 -11 314 -322 325 -322 6 0 24 7 40 16 17 9 56 18 88
21 32 3 60 10 63 14 10 16 -66 9 -133 -12 l-65 -21 -144 143 c-79 79 -144 147
-144 151 0 5 230 8 510 8 l510 0 0 -49 c0 -64 -11 -91 -57 -142 -47 -51 -104
-89 -137 -89 -14 0 -27 -4 -30 -9 -11 -18 90 10 126 35 76 53 118 133 118 224
0 69 -21 127 -58 157 l-27 23 168 0 c110 0 166 -3 162 -10 -3 -6 -14 -10 -23
-10 -39 -1 -71 -55 -72 -120 0 -13 92 -15 782 -12 805 2 816 2 861 -36 16 -14
17 -67 17 -845 l0 -830 -51 6 c-28 4 -56 10 -63 15 -26 21 -185 63 -222 59
-38 -4 -38 -4 8 -5 26 -1 49 -6 52 -11 3 -5 21 -12 40 -15 20 -4 48 -13 63
-21 15 -8 43 -18 61 -21 18 -3 35 -10 38 -15 3 -5 43 -9 89 -9 80 0 85 1 114
31 l31 31 0 854 c0 829 -1 856 -20 893 -18 36 -36 51 -62 51 -5 0 7 -15 26
-34 l36 -33 0 -867 c0 -853 0 -866 -20 -886 -14 -14 -33 -20 -65 -20 l-45 0 0
823 c0 452 -3 831 -6 842 -13 51 8 50 -849 55 l-800 5 3 30 c5 38 17 53 60 71
29 12 165 14 841 16 624 2 719 4 419 8 -212 3 -389 8 -393 12 -3 3 7 9 23 12
20 5 34 18 45 42 15 31 17 92 17 582 0 301 -4 552 -8 559 -10 15 -57 33 -88
33 -19 0 -25 5 -22 17 2 13 18 21 53 27 28 6 53 15 57 20 4 6 8 163 8 348 0
316 1 337 18 342 31 10 226 -4 239 -17 7 -7 14 -54 17 -111 3 -54 9 -102 14
-105 10 -7 27 -52 24 -63 -1 -5 3 -8 10 -8 6 0 9 -3 5 -6 -7 -7 3 -21 55 -75
l37 -39 -167 -2 -167 -3 -3 -730 c-2 -767 -2 -773 42 -797 24 -13 686 -18 734
-6 36 10 244 221 337 343 97 127 227 354 273 475 33 88 81 239 88 275 3 22 10
47 14 55 21 40 39 356 22 371 -5 5 -180 18 -249 19 -23 0 -14 18 20 39 17 11
28 21 24 21 -5 0 -2 7 5 15 29 32 39 45 33 45 -3 0 -1 10 6 21 6 12 13 36 16
53 3 17 7 38 8 46 2 8 4 63 4 122 1 124 3 127 97 131 65 2 66 1 84 -92 28
-154 24 -416 -11 -651 -36 -249 -173 -616 -300 -808 -16 -24 -29 -45 -29 -48
0 -3 -5 -10 -10 -17 -6 -7 -37 -47 -69 -91 l-58 -79 18 -37 c10 -21 31 -47 46
-59 l28 -20 -102 -1 -101 0 -44 -36 c-26 -22 -43 -45 -43 -58 l0 -21 1420 0
1420 0 3 43 c3 34 7 42 23 42 14 0 19 -7 19 -26 0 -14 5 -34 10 -45 10 -18 24
-19 266 -19 222 0 255 2 261 16 9 24 -13 62 -49 84 l-33 20 0 139 c0 90 -4
143 -12 152 -6 8 -13 30 -16 49 -2 19 -2 1 0 -40 3 -41 9 -79 14 -84 11 -12
12 -99 2 -110 -4 -4 -16 37 -25 91 -10 54 -25 134 -34 178 -25 132 -71 390
-80 450 -3 17 -9 55 -15 85 -5 30 -14 93 -20 140 -5 47 -16 135 -24 195 -7 61
-21 173 -29 250 -9 77 -18 158 -21 180 -21 149 -17 182 15 133 13 -21 22 -88
51 -383 6 -60 16 -114 21 -120 11 -11 10 -2 -16 215 -9 69 -19 162 -25 207 -8
73 -13 86 -52 138 l-43 57 -2 192 c-3 231 -13 270 -71 281 -34 6 -51 20 -121
98 -13 15 -35 17 -164 17 l-148 0 0 36 0 37 43 -8 c46 -8 51 -8 185 1 83 5 94
8 102 28 11 30 52 71 89 90 l32 17 -7 73 c-5 57 -3 79 10 104 9 18 19 32 21
32 3 0 20 -17 39 -37 19 -21 38 -34 43 -30 4 5 -1 16 -12 25 -22 18 -55 62
-55 74 0 4 17 9 38 11 l37 4 -37 1 c-32 2 -39 6 -44 29 -7 26 -7 26 -15 5 -11
-28 -35 -28 -53 1 -19 29 -31 163 -18 191 6 11 18 45 27 73 9 29 21 55 26 58
12 8 12 92 -1 100 -6 4 -10 -12 -10 -42 0 -30 -7 -59 -19 -77 l-19 -29 -6 64
c-4 35 -11 184 -17 330 -17 424 10 1003 66 1384 8 55 19 136 25 180 5 44 15
97 22 118 11 38 12 38 24 15 l13 -23 1 27 c0 34 -24 58 -60 58 -16 0 -50 5
-77 10 -26 6 -136 27 -243 47 -189 36 -201 37 -400 35 -177 -2 -228 1 -375 23
-93 14 -215 32 -270 40 -102 15 -187 28 -425 66 -118 18 -384 35 -535 34 -48
0 -49 -1 -58 -35 -12 -48 -20 -722 -9 -738 7 -10 32 -11 123 -3 63 6 143 13
179 16 36 2 137 12 225 20 264 26 497 46 540 47 50 2 152 -17 199 -37 54 -23
167 -20 199 5 17 13 40 20 71 20 l46 0 0 -980 0 -980 -25 0 -25 0 0 810 0 809
-24 55 c-35 78 -65 118 -118 159 -61 47 -89 61 -175 87 -62 19 -89 21 -190 17
-111 -4 -310 -22 -518 -46 -190 -22 -284 -32 -390 -42 -60 -6 -113 -14 -118
-18 -4 -4 -8 -449 -9 -988 -2 -1026 -3 -1013 38 -1013 8 0 19 -11 26 -25 6
-13 24 -28 39 -34 16 -5 29 -16 29 -24 0 -8 11 -22 24 -30 20 -14 24 -24 25
-78 1 -35 5 -67 9 -71 5 -5 309 -7 678 -6 l669 3 3 120 c1 66 6 129 12 140 5
11 11 31 13 45 4 25 4 25 6 -2 0 -15 6 -30 11 -33 6 -3 10 -35 10 -71 0 -70
12 -104 35 -104 8 0 15 -9 15 -20 0 -24 71 -100 94 -100 14 0 17 -9 14 -57
l-3 -58 -67 -3 c-65 -3 -68 -4 -68 -28 0 -31 44 -162 76 -225 31 -62 109 -176
148 -217 86 -90 188 -152 321 -195 67 -22 212 -45 238 -39 4 1 7 -5 7 -14 0
-13 -13 -15 -87 -12 -49 3 -104 10 -123 18 -19 7 -64 24 -100 37 -35 12 -104
46 -153 74 l-89 51 -26 -19 c-15 -11 -51 -50 -79 -87 l-53 -68 0 -149 c0 -137
-1 -149 -18 -149 -32 0 -50 24 -55 72 -3 29 -16 66 -36 96 -43 68 -41 90 8 98
40 6 45 11 164 164 64 81 64 81 1 152 -67 75 -166 272 -184 363 -6 33 -14 74
-17 90 -3 17 -10 36 -15 43 -8 9 -143 12 -614 12 l-604 0 -10 -25 c-5 -14 -9
-29 -9 -33 1 -4 1 -30 0 -59 l-1 -52 -37 -3 -38 -3 -5 -145 c-5 -145 -5 -145
-29 -145 -21 0 -26 9 -45 75 -19 67 -25 76 -58 94 -32 16 -41 17 -67 6 -34
-14 -34 -18 -4 -113 20 -63 11 -71 -61 -62 -41 5 -56 12 -57 24 -1 9 -2 27 -3
41 -1 14 -5 31 -9 38 -5 6 -5 12 -1 12 4 0 -1 10 -12 22 -10 12 -13 18 -6 14
8 -5 3 8 -9 27 -13 19 -28 33 -34 30 -5 -4 -7 -3 -3 2 4 4 4 13 -1 19 -5 6
-11 39 -14 72 -4 51 -14 76 -53 140 -60 101 -182 264 -196 264 -6 0 -8 3 -5 7
8 7 -188 204 -242 243 -18 14 -43 33 -55 43 -49 43 -219 149 -321 200 -198 99
-317 139 -401 135 l-59 -3 -2 -163 -2 -162 42 -26 c179 -111 274 -344 222
-544 -35 -136 -113 -246 -212 -298 -47 -25 -53 -40 -53 -123 0 -64 -3 -79 -15
-79 -13 0 -15 44 -15 333 0 182 -4 338 -9 345 -4 7 -33 17 -64 21 -32 4 -60
11 -64 15 -14 13 23 35 72 42 28 3 53 11 57 18 4 6 8 142 8 303 0 290 0 292
-22 307 -19 13 -58 16 -230 16 -178 0 -208 2 -208 15 0 18 -18 17 233 19 l208
1 23 29 c22 29 23 29 28 8 4 -12 16 -25 27 -30 12 -4 170 -7 351 -7 330 0 330
1 346 23 19 28 47 28 66 0 15 -22 17 -23 289 -23 150 0 296 2 323 5 l51 5 6
90 c4 50 12 103 18 118 12 31 7 222 -9 337 -5 36 -10 241 -10 456 0 335 -2
393 -15 404 -12 10 -34 9 -109 -4 -114 -19 -141 -30 -166 -71 -18 -29 -20 -51
-20 -222 0 -177 1 -192 21 -217 17 -22 28 -26 69 -26 52 0 57 -6 54 -57 -1
-18 -2 -49 -3 -68 -1 -37 -17 -47 -28 -17 -4 9 -21 32 -38 50 l-31 33 -255 2
c-140 1 -260 -2 -266 -6 -7 -5 -13 -17 -13 -28 0 -10 -7 -19 -15 -19 -8 0 -15
9 -15 20 0 13 -9 22 -27 27 -34 8 -288 7 -303 -2 -5 -3 -10 -15 -10 -26 0 -17
-7 -19 -75 -19 -59 0 -75 3 -75 15 0 34 -34 39 -236 36 -100 -1 -102 -2 -108
-26 -5 -21 -12 -25 -41 -25 -23 0 -35 5 -35 14 0 27 -43 42 -115 40 -38 -2
-105 -3 -147 -3 -76 -1 -78 -2 -78 -26 0 -21 -5 -25 -31 -25 -22 0 -32 5 -36
19 -5 19 -44 38 -73 35 -8 -1 -97 -2 -197 -3 l-183 -1 0 -25 c0 -24 -2 -25
-71 -25 l-70 0 3 53 3 52 484 3 c444 2 486 4 504 20 18 15 19 27 14 130 -5
124 -18 158 -70 176 -32 12 -253 -12 -597 -64 -343 -52 -535 -212 -616 -515
-25 -92 -27 -119 -31 -340 -4 -195 -2 -243 9 -259 14 -17 39 -18 466 -20 326
-2 455 -5 464 -14 9 -9 8 -13 -3 -17 -8 -3 -219 -6 -469 -7 l-455 -3 -3 -102
c-3 -122 8 -152 71 -185 l42 -22 -32 -7 c-86 -18 -93 -44 -93 -363 0 -252 -1
-264 -19 -269 -18 -4 -20 2 -23 77 -2 44 0 86 4 91 11 16 11 107 3 347 -9 255
1 238 -152 238 -53 0 -93 3 -89 7 4 5 58 10 119 13 l112 5 6 340 c4 187 9 360
13 385 3 25 10 124 16 220 6 96 13 189 16 205 3 17 11 82 19 145 26 209 66
387 110 485 7 17 23 55 35 85 64 160 223 436 330 570 20 25 43 56 52 70 39 62
254 287 353 371 35 30 64 59 64 65 2 23 -155 134 -248 176 -36 16 -94 43 -128
59 -34 15 -73 31 -87 35 -14 3 -26 10 -26 15 0 5 -5 9 -11 9 -11 0 -19 3 -152
64 -42 20 -80 36 -83 36 -3 0 -20 6 -37 14 -18 8 -54 24 -82 36 -27 12 -59 25
-70 30 -85 38 -115 50 -125 50 -7 0 -26 6 -43 14 -133 59 -258 73 -334 35z
m181 2 c3 -4 24 -11 46 -15 23 -3 49 -11 58 -16 9 -5 60 -26 112 -46 85 -33
143 -56 205 -84 11 -5 43 -18 70 -30 73 -31 85 -36 135 -58 25 -11 68 -30 95
-42 28 -12 77 -34 110 -50 102 -47 168 -77 208 -93 20 -9 37 -20 37 -24 0 -4
-19 -21 -43 -38 -75 -53 -269 -229 -360 -326 -214 -228 -368 -468 -497 -776
-23 -54 -47 -111 -55 -128 -41 -95 -122 -340 -175 -530 -59 -216 -69 -250
-100 -350 -16 -49 -43 -137 -60 -195 -17 -58 -38 -123 -45 -145 -7 -22 -23
-74 -35 -115 -30 -103 -51 -160 -60 -160 -4 0 -11 12 -15 27 -11 46 -71 126
-124 167 -51 38 -280 145 -313 146 -9 0 -19 4 -23 9 -3 5 -18 12 -35 16 -41 9
-78 41 -95 82 -17 41 -20 99 -5 108 6 3 10 17 10 30 0 12 7 26 16 29 25 9 54
7 54 -5 0 -5 5 -7 10 -4 6 3 10 31 10 61 0 49 -3 55 -25 64 -14 5 -25 14 -25
20 0 5 11 10 25 10 14 0 25 5 25 10 0 6 -7 10 -16 10 -18 0 -15 33 11 120 7
25 23 83 35 130 12 47 26 92 30 100 4 9 11 36 15 60 4 24 11 51 16 60 4 8 13
35 19 60 6 25 20 77 30 115 11 39 24 93 30 120 6 28 15 59 20 70 8 19 14 40
41 148 6 23 14 49 18 57 5 9 12 36 16 60 4 24 11 51 16 60 8 14 27 84 50 190
5 25 14 52 18 60 5 9 12 36 16 60 4 25 11 50 15 55 4 6 12 30 18 55 6 25 20
79 31 120 11 41 25 95 31 120 6 25 15 52 19 60 5 9 12 36 16 60 4 25 11 50 15
55 4 6 11 30 15 55 4 25 11 50 15 55 4 6 12 30 18 55 22 97 51 184 69 209 11
14 37 38 59 53 33 23 50 27 106 28 37 0 69 -4 72 -9z m4560 -1886 c46 -7 88
-24 158 -61 32 -17 96 -111 111 -162 13 -47 11 -158 -4 -247 -17 -95 -18 -249
-1 -310 7 -27 15 -58 17 -67 2 -9 9 -27 16 -39 14 -26 8 -223 -8 -254 -5 -11
-17 -34 -25 -51 -17 -35 -17 -122 0 -189 21 -78 25 -100 24 -130 0 -42 -23
-145 -31 -145 -12 0 -6 -181 7 -234 7 -27 11 -50 9 -52 -3 -4 -239 -5 -870 -4
l-427 0 2 932 3 932 35 3 c19 1 69 7 110 14 93 14 182 14 235 -1 22 -7 78 -13
125 -14 74 -3 97 1 185 31 177 60 218 66 329 48z m-5504 -591 c0 -8 -4 -12
-10 -9 -5 3 -10 10 -10 16 0 5 5 9 10 9 6 0 10 -7 10 -16z m-40 -42 c0 -10 -6
-24 -12 -31 -11 -11 -10 -13 2 -9 8 2 22 18 30 34 l15 29 3 -27 c5 -39 -14
-68 -43 -68 -23 0 -25 4 -25 45 0 33 4 45 15 45 8 0 15 -8 15 -18z m100 3 c0
-16 -27 -32 -37 -22 -3 4 -3 13 0 22 8 20 37 20 37 0z m0 -56 c0 -16 -5 -20
-27 -17 -36 4 -41 26 -6 31 15 2 29 5 31 6 1 0 2 -8 2 -20z m-195 -565 c-5
-28 -9 -34 -15 -23 -6 8 -6 15 0 17 6 2 10 15 10 30 0 14 3 23 6 19 4 -3 3
-23 -1 -43z m-98 -356 c-3 -7 -5 -2 -5 12 0 14 2 19 5 13 2 -7 2 -19 0 -25z
m2173 -171 l0 -173 -32 -9 -33 -10 -3 -141 c-2 -130 -1 -143 18 -167 12 -15
28 -27 36 -27 11 0 14 -15 14 -65 0 -61 -1 -65 -23 -65 -44 0 -47 -12 -47
-222 l0 -198 -29 0 c-24 0 -30 5 -35 28 -3 15 -5 227 -4 472 0 310 -3 458 -11
487 -8 28 -24 52 -49 72 -31 26 -33 31 -16 31 12 0 33 12 48 26 21 21 26 36
26 75 0 55 3 57 83 58 l57 1 0 -173z m3960 -92 c0 -14 -4 -25 -10 -25 -5 0
-10 11 -10 25 0 14 5 25 10 25 6 0 10 -11 10 -25z m830 -17 c0 -7 -7 -21 -14
-31 -13 -16 -14 -16 -19 5 -3 12 -4 25 -1 30 8 13 34 9 34 -4z m-5884 -228
c-1 -21 -34 -65 -43 -57 -7 8 6 45 23 62 20 19 21 19 20 -5z m-78 -308 c-4 -2
-16 2 -28 8 -23 12 -22 24 8 90 l16 35 6 -65 c3 -36 2 -66 -2 -68z m25 -61 c8
-8 8 -19 1 -40 -10 -24 -8 -32 17 -62 l28 -34 -21 -22 c-25 -27 -20 -58 10
-57 15 0 21 -4 18 -12 -3 -7 4 -24 15 -38 11 -14 18 -26 15 -26 -12 0 47 -85
77 -112 44 -40 59 -42 126 -13 33 14 67 25 75 25 29 0 38 39 34 154 -3 97 0
115 15 131 16 18 17 -12 17 -623 0 -429 4 -650 11 -669 32 -85 101 -98 412
-77 95 7 98 8 127 41 19 22 30 45 31 66 0 18 1 213 3 435 2 425 2 427 46 419
12 -2 16 -34 20 -190 5 -172 7 -190 24 -203 11 -8 26 -14 33 -14 7 0 13 -7 13
-15 0 -8 -9 -15 -19 -15 -46 0 -51 -20 -51 -210 0 -192 7 -226 47 -236 23 -6
24 -9 21 -103 l-3 -96 -55 -2 c-61 -2 -80 8 -80 43 0 13 -9 28 -19 34 -32 17
-454 13 -497 -5 -64 -26 -65 -38 -62 -468 l3 -382 25 -45 c20 -35 35 -48 70
-61 42 -16 43 -18 20 -23 -45 -12 -893 -2 -897 10 -2 7 106 10 358 10 302 0
362 3 370 15 15 25 10 86 -10 110 l-19 24 -351 3 -351 3 0 24 0 25 324 0 c183
0 336 4 350 10 55 20 57 37 54 430 -2 198 0 360 5 360 4 0 7 188 7 418 l0 419
-25 11 c-15 7 -72 12 -130 12 -94 0 -111 -3 -167 -29 -111 -51 -145 -56 -360
-53 l-198 3 0 49 c0 48 0 49 28 41 28 -7 141 -6 317 5 105 6 231 43 242 70 3
8 -11 32 -30 54 -34 37 -36 42 -30 89 5 42 1 59 -27 118 -63 132 -62 131 -36
126 17 -4 25 1 29 17 5 18 -1 25 -33 39 -52 21 -61 42 -17 38 26 -2 32 2 32
17 0 14 -10 22 -32 28 -18 5 -35 13 -39 20 -9 14 74 4 89 -11z m3847 -484 c19
-18 47 -38 62 -45 17 -7 126 -11 315 -12 374 -2 337 3 343 -45 4 -32 10 -40
30 -45 16 -4 25 -13 25 -25 0 -19 -9 -20 -177 -23 l-178 -2 0 -130 0 -130
-122 -1 c-68 -1 -169 -2 -226 -3 -56 -1 -111 2 -121 5 -16 7 -19 25 -24 181
-4 95 -10 203 -13 241 l-7 67 29 0 c18 0 41 -12 64 -33z m-1409 -472 c5 4 9 2
9 -4 0 -6 7 -8 15 -5 8 4 15 1 15 -7 0 -7 3 -9 7 -6 3 4 13 1 21 -6 13 -10 14
-9 8 1 -7 11 -4 12 13 3 11 -7 21 -9 21 -5 0 3 6 1 13 -5 8 -6 17 -8 20 -5 5
5 415 6 465 2 27 -3 -36 -32 -128 -59 -96 -29 -318 -8 -376 36 -10 8 -27 15
-36 15 -9 0 -24 7 -32 16 -9 8 -16 13 -16 9 0 -3 -9 -1 -20 5 -11 6 -19 18
-19 28 1 16 2 15 6 -1 2 -9 9 -15 14 -12z m1939 -421 c5 -5 10 -20 12 -34 2
-17 10 -26 26 -28 17 -3 22 -10 22 -31 0 -15 7 -36 15 -47 24 -31 18 -35 -52
-32 l-68 3 -3 43 c-4 49 -6 51 -87 54 -58 3 -60 4 -63 31 -2 16 1 34 6 40 12
14 179 14 192 1z m-4423 -140 c-3 -3 -12 -4 -19 -1 -8 3 -5 6 6 6 11 1 17 -2
13 -5z m-432 -64 c3 -5 1 -10 -4 -10 -6 0 -11 5 -11 10 0 6 2 10 4 10 3 0 8
-4 11 -10z m5915 -34 c0 -16 -26 -17 -325 -15 -250 1 -328 -1 -340 -11 -11 -9
-15 -34 -15 -106 0 -85 2 -94 22 -108 l22 -16 -22 0 c-22 0 -22 0 -22 -198 0
-163 3 -201 16 -220 15 -22 15 -22 355 -22 332 0 339 0 339 -20 0 -20 -7 -20
-369 -20 -203 0 -376 2 -384 6 -12 4 -12 11 -2 42 19 56 13 603 -7 657 l-15
40 373 4 c346 3 374 3 374 -13z m-5875 -232 c13 -5 14 -8 3 -15 -19 -13 -28
-11 -28 6 0 17 2 18 25 9z m645 -14 c0 -5 -2 -10 -4 -10 -3 0 -8 5 -11 10 -3
6 -1 10 4 10 6 0 11 -4 11 -10z m3586 -102 c-3 -18 -8 -57 -12 -85 l-7 -53
-169 0 -170 0 40 73 c22 39 51 78 64 84 14 8 67 13 142 13 l118 0 -6 -32z
m-491 -378 c3 -5 -1 -10 -10 -10 -9 0 -13 5 -10 10 3 6 8 10 10 10 2 0 7 -4
10 -10z m-3785 -366 l0 -95 -32 3 -33 3 -3 79 c-2 44 -1 85 2 93 3 7 19 13 36
13 l30 0 0 -96z m76 -361 c-8 -8 -56 26 -63 44 -4 10 5 25 28 44 l34 28 3 -56
c2 -30 1 -58 -2 -60z m-82 -4 c-7 -11 -44 -12 -44 -1 0 4 5 13 12 20 13 13 42
-4 32 -19z m-1056 14 c-15 -2 -42 -2 -60 0 -18 2 -6 4 27 4 33 0 48 -2 33 -4z
m1370 -10 c-10 -2 -26 -2 -35 0 -10 3 -2 5 17 5 19 0 27 -2 18 -5z m-1413 -26
c19 -5 19 -5 -2 -12 -28 -9 -29 -21 -3 -28 31 -8 24 -27 -10 -27 -29 0 -30 2
-30 46 0 36 3 44 13 36 6 -5 21 -12 32 -15z m72 -3 c-3 -3 -12 -4 -19 -1 -8 3
-5 6 6 6 11 1 17 -2 13 -5z m1263 -51 c0 -35 -4 -53 -9 -47 -9 8 -3 104 5 104
2 0 4 -26 4 -57z m-150 26 c0 -5 -16 -9 -35 -9 -40 0 -45 7 -12 19 24 9 47 4
47 -10z m225 11 c-3 -5 -12 -10 -20 -10 -8 0 -17 5 -20 10 -4 6 5 10 20 10 15
0 24 -4 20 -10z m-310 -10 c4 -6 -7 -10 -25 -10 -18 0 -29 4 -25 10 3 6 15 10
25 10 10 0 22 -4 25 -10z m368 3 c3 -5 1 -28 -3 -53 -5 -30 -8 -36 -9 -17 -1
25 -4 27 -48 29 -46 1 -46 2 -9 5 27 3 40 10 43 24 5 19 18 25 26 12z m-365
-66 c3 -12 -4 -17 -23 -17 -23 0 -25 2 -15 21 13 23 33 21 38 -4z m82 -9 c0
-17 -1 -29 -2 -27 -2 2 -14 16 -27 32 l-24 27 26 0 c24 0 27 -4 27 -32z m100
2 c0 -5 -4 -10 -10 -10 -5 0 -10 5 -10 10 0 6 5 10 10 10 6 0 10 -4 10 -10z
m-1237 -7 c-18 -2 -48 -2 -65 0 -18 2 -4 4 32 4 36 0 50 -2 33 -4z m1367 -3
c0 -5 -9 -10 -19 -10 -11 0 -23 5 -26 10 -4 6 5 10 19 10 14 0 26 -4 26 -10z
m-310 -193 c0 -86 -4 -145 -9 -137 -20 36 -62 212 -59 246 2 31 8 39 28 45 14
3 28 4 33 2 4 -2 7 -73 7 -156z"/>
<path d="M2650 8906 c0 -68 2 -77 15 -66 9 7 36 11 71 8 l56 -3 0 68 0 68 -71
2 -71 2 0 -79z m128 12 l-3 -53 -55 0 -55 0 -3 39 c-5 60 1 66 63 66 l56 0 -3
-52z"/>
<path d="M2923 11180 c-3 -11 -10 -20 -15 -20 -5 0 -6 -10 -2 -22 4 -13 7 -30
7 -38 0 -8 4 -21 10 -27 6 -9 6 -13 -1 -13 -6 0 -14 5 -17 10 -13 21 -23 9
-12 -15 9 -18 17 -23 31 -19 10 4 23 0 28 -7 7 -11 11 -11 15 -1 2 6 13 12 23
12 10 0 22 5 25 11 4 6 13 8 21 5 19 -7 18 19 -2 38 -10 11 -11 16 -3 16 6 0
18 -8 25 -17 12 -17 13 -16 14 5 0 14 -8 26 -22 32 -16 6 -18 9 -7 9 9 1 23 8
30 17 12 15 11 16 -9 10 -14 -5 -29 -3 -37 4 -12 10 -15 9 -15 -4 0 -9 -4 -16
-10 -16 -5 0 -7 6 -4 14 6 16 0 21 -39 30 -24 6 -30 3 -34 -14z m48 -15 c9 6
11 3 6 -9 -4 -10 -7 -22 -7 -27 0 -17 -20 -9 -21 9 -1 16 -2 16 -6 -1 -2 -9
-9 -15 -13 -12 -5 3 -4 17 2 31 7 16 14 20 19 13 4 -7 12 -8 20 -4z m27 -54
c-2 -5 6 -16 16 -24 18 -13 18 -14 -7 -19 -16 -3 -25 -1 -24 6 1 6 -5 11 -13
11 -8 0 -14 -6 -12 -13 2 -10 -2 -10 -18 0 -28 18 -25 28 10 28 17 0 30 5 30
10 0 6 5 10 10 10 6 0 9 -4 8 -9z"/>
<path d="M2998 11033 c-25 -6 -22 -20 5 -27 33 -9 44 -7 27 4 -13 8 -13 10 2
10 9 0 20 5 23 10 6 10 -24 12 -57 3z"/>
<path d="M2863 10981 c-5 -3 -14 -28 -20 -56 -10 -44 -10 -52 5 -63 9 -7 22
-10 28 -8 7 3 15 -5 19 -17 l7 -22 6 22 c5 17 11 20 22 13 23 -15 29 -12 23
11 -5 16 6 51 24 78 1 2 9 -2 18 -9 9 -8 13 -22 9 -39 l-5 -26 14 24 c18 31
13 45 -19 60 -31 14 -44 7 -44 -22 0 -12 -5 -29 -10 -37 -8 -12 -10 -12 -10 5
0 11 4 37 9 58 8 31 7 36 -4 27 -8 -6 -16 -21 -18 -33 -4 -19 -4 -18 -6 4 -1
27 -29 44 -48 30z m22 -58 c-8 -54 -10 -58 -24 -48 -15 8 -14 35 2 68 19 42
30 32 22 -20z m22 -35 c-3 -7 -5 -2 -5 12 0 14 2 19 5 13 2 -7 2 -19 0 -25z"/>
<path d="M4674 10758 c-217 -172 -330 -307 -536 -638 -109 -177 -138 -236
-192 -405 -59 -182 -78 -266 -80 -346 -1 -86 12 -110 71 -135 27 -12 41 -12
95 2 81 21 174 68 189 96 7 14 10 46 6 88 -6 75 -2 87 35 94 60 11 86 37 133
135 45 93 110 157 205 203 42 19 90 47 107 62 17 14 41 26 53 26 13 0 28 6 34
14 9 13 17 13 50 1 29 -10 45 -11 65 -3 14 6 31 12 36 12 15 1 18 45 4 62 -16
19 8 67 29 59 7 -3 32 -6 55 -7 37 -1 38 -2 10 -5 l-33 -4 0 -65 0 -65 34 6
c18 4 36 3 39 -2 3 -5 7 -42 8 -83 l2 -74 -39 -3 c-21 -2 -100 -10 -174 -19
-74 -8 -180 -20 -235 -25 -177 -17 -168 -12 -230 -123 -66 -119 -79 -221 -35
-261 17 -15 31 -17 102 -11 46 3 99 8 118 11 19 2 89 11 155 20 66 9 168 22
228 29 123 15 147 29 147 83 0 37 15 73 30 73 6 0 10 -14 10 -30 0 -17 7 -46
14 -65 12 -29 20 -35 45 -35 38 0 51 23 51 89 0 36 4 51 13 51 14 0 25 -19 47
-76 15 -40 49 -58 92 -50 33 6 245 33 328 41 233 23 230 22 230 100 0 39 5 56
20 70 11 10 25 38 31 62 13 51 29 65 66 61 23 -2 29 -9 31 -33 2 -16 8 -35 13
-41 5 -7 14 -38 19 -69 13 -79 32 -98 90 -91 25 4 106 13 180 20 215 23 334
37 345 40 11 4 36 238 35 326 0 52 -5 62 -40 81 -25 14 -162 17 -255 5 -125
-15 -290 -25 -298 -17 -5 5 -6 18 -3 29 7 22 42 34 116 37 84 5 215 15 250 21
19 3 59 7 87 9 69 5 86 16 116 69 30 53 54 233 34 253 -20 19 -296 75 -458 93
-47 5 -112 14 -145 19 -32 6 -151 26 -264 45 -564 96 -919 157 -1030 177 -42
8 -79 22 -104 40 -22 16 -48 29 -57 29 -10 0 -53 -28 -95 -62z m402 -739 c8
-14 -18 -31 -30 -19 -9 9 0 30 14 30 5 0 12 -5 16 -11z m-162 -8 c3 -5 -3 -11
-14 -14 -13 -3 -20 0 -20 9 0 15 26 19 34 5z"/>
<path d="M2816 10802 c-2 -4 -7 -23 -11 -42 -6 -33 -4 -36 28 -48 46 -17 47
-16 47 22 0 41 24 54 51 30 23 -21 24 -28 3 -49 -9 -9 -13 -19 -9 -23 8 -9 45
35 45 54 0 18 -40 54 -60 54 -21 0 -50 -31 -50 -53 0 -19 -8 -21 -29 -8 -12 8
-13 14 -3 36 7 14 12 28 12 30 0 8 -18 6 -24 -3z"/>
<path d="M8820 10659 c0 -17 4 -28 10 -24 6 3 10 17 10 31 0 13 -4 24 -10 24
-5 0 -10 -14 -10 -31z"/>
<path d="M8873 10625 c0 -33 2 -45 4 -27 2 18 2 45 0 60 -2 15 -4 0 -4 -33z"/>
<path d="M2781 10644 c-25 -31 -25 -42 -6 -68 17 -23 72 -26 86 -5 5 8 9 25 9
37 0 26 17 26 34 -1 8 -12 5 -21 -9 -36 -24 -27 -11 -40 15 -16 40 36 19 81
-49 104 -48 16 -57 14 -80 -15z m67 -36 c3 -24 0 -28 -21 -28 -34 0 -54 25
-37 45 21 25 54 15 58 -17z"/>
<path d="M9505 10621 c-4 -8 -14 -44 -21 -80 -42 -222 -58 -264 -106 -285 -33
-14 -33 -14 -6 -15 34 -1 74 48 83 104 3 22 11 49 16 60 5 11 13 45 18 75 8
48 9 50 10 18 2 -62 18 -43 26 29 4 36 10 73 13 81 3 10 1 13 -5 9 -6 -4 -13
-2 -15 5 -3 9 -6 9 -13 -1z m12 -78 c-3 -10 -5 -2 -5 17 0 19 2 27 5 18 2 -10
2 -26 0 -35z"/>
<path d="M8811 10543 c1 -78 6 -74 12 10 2 31 0 57 -5 57 -4 0 -8 -30 -7 -67z"/>
<path d="M8858 10544 c-4 -6 -9 -54 -10 -107 -3 -86 -1 -98 17 -111 24 -19 80
-36 117 -36 15 0 30 -4 33 -10 3 -5 24 -10 46 -10 65 0 35 17 -42 25 -39 4
-83 13 -98 21 -14 8 -31 14 -37 14 -21 0 -36 64 -22 93 11 21 6 137 -4 121z"/>
<path d="M2733 10495 c-7 -20 6 -33 16 -16 7 10 17 10 55 -3 51 -17 86 -21 86
-8 0 6 -121 42 -143 42 -4 0 -10 -7 -14 -15z"/>
<path d="M7170 10470 c0 -6 28 -10 63 -11 34 0 92 -3 130 -8 37 -4 67 -3 67 1
0 4 -24 8 -54 8 -30 0 -58 5 -61 10 -3 6 -37 10 -76 10 -39 0 -69 -4 -69 -10z"/>
<path d="M8798 10455 c-3 -11 -9 -36 -12 -55 -11 -63 -37 -70 -269 -72 l-202
-3 195 -3 c107 -1 209 0 227 3 42 8 75 60 71 112 -2 28 -5 33 -10 18z"/>
<path d="M7444 10441 c4 -5 50 -12 104 -16 53 -3 106 -10 117 -15 11 -5 67
-14 125 -20 58 -6 122 -14 143 -17 20 -3 37 -1 37 4 0 9 -93 22 -315 44 -55 6
-108 15 -117 20 -23 12 -101 12 -94 0z"/>
<path d="M9486 10408 c-14 -101 -13 -123 8 -145 20 -23 56 -31 56 -13 0 6 -8
10 -19 10 -41 0 -51 58 -25 163 4 16 2 27 -4 27 -5 0 -13 -19 -16 -42z"/>
<path d="M2715 10413 c-5 -10 -9 -22 -10 -28 -1 -5 -3 -12 -5 -15 -6 -11 -7
-50 -1 -50 4 0 13 6 20 13 10 8 12 9 7 0 -8 -14 15 -28 62 -36 27 -6 32 -4 32
13 0 10 5 22 10 25 6 3 10 17 10 29 0 19 -8 26 -42 34 -23 6 -44 10 -45 8 -6
-6 10 -66 18 -66 4 0 10 10 12 23 l4 22 2 -22 c1 -27 17 -30 25 -5 3 10 4 6 3
-8 -2 -21 -7 -25 -32 -25 -25 0 -30 4 -33 28 -2 15 -7 27 -11 27 -5 0 -6 11
-3 25 5 28 -12 34 -23 8z"/>
<path d="M2857 10383 c-4 -3 -7 -17 -7 -31 0 -13 -8 -37 -17 -52 -14 -24 -23
-29 -52 -27 -28 2 -36 -2 -38 -18 -1 -11 0 -14 3 -7 8 17 53 15 60 -3 4 -8 10
-15 15 -15 4 0 6 6 3 13 -3 8 2 20 11 27 8 7 15 21 15 31 0 10 4 20 9 23 5 3
11 19 13 36 4 29 -1 37 -15 23z"/>
<path d="M7985 10369 c3 -3 35 -9 72 -13 38 -3 84 -9 103 -11 88 -13 152 -16
147 -8 -3 5 -23 10 -44 11 -21 2 -93 8 -160 15 -67 7 -120 10 -118 6z"/>
<path d="M2675 10280 c-3 -5 1 -10 9 -10 8 0 18 5 21 10 3 6 -1 10 -9 10 -8 0
-18 -4 -21 -10z"/>
<path d="M9170 10259 c122 -18 176 -21 165 -11 -5 6 -59 12 -120 15 -95 5
-101 4 -45 -4z"/>
<path d="M2657 10223 c-4 -3 -7 -18 -7 -33 0 -14 -4 -30 -9 -35 -5 -6 -12 -26
-16 -46 -7 -39 -6 -39 110 -69 52 -13 50 -14 52 17 1 32 23 103 36 120 6 9 5
14 -4 17 -8 2 -38 11 -68 20 -57 17 -84 20 -94 9z m82 -22 c35 -10 42 -36 7
-27 -19 5 -26 3 -26 -9 0 -28 -30 -16 -31 13 -1 20 -2 22 -6 7 -3 -11 -9 -24
-14 -29 -5 -6 -9 -21 -9 -35 1 -25 1 -26 16 -6 15 20 15 20 30 1 8 -11 14 -14
14 -8 0 20 20 13 29 -10 7 -20 9 -19 19 12 7 18 12 41 12 51 0 11 5 19 11 19
6 0 8 -7 5 -16 -3 -9 -9 -33 -12 -55 -8 -49 -14 -53 -68 -45 -69 11 -76 21
-63 89 9 52 12 57 36 56 14 -1 37 -4 50 -8z m21 -56 c0 -8 -4 -15 -9 -15 -13
0 -22 16 -14 24 11 11 23 6 23 -9z"/>
<path d="M9542 10201 c-32 -8 -51 -19 -48 -26 5 -13 -19 -219 -27 -232 -3 -4
-8 -55 -12 -113 -4 -58 -12 -115 -16 -128 -11 -28 -12 -148 -1 -138 4 4 12 67
18 139 7 73 20 188 29 257 9 69 17 135 18 147 1 12 5 25 10 29 4 4 7 15 7 25
0 26 61 42 139 36 48 -3 59 -2 41 5 -40 15 -101 15 -158 -1z"/>
<path d="M9450 10138 c-20 -33 -27 -98 -11 -98 4 0 11 20 13 44 3 25 13 52 22
61 19 19 20 25 6 25 -6 0 -19 -15 -30 -32z"/>
<path d="M9418 9970 c-1 -33 0 -60 4 -60 3 0 8 27 10 60 1 33 0 60 -4 60 -3 0
-8 -27 -10 -60z"/>
<path d="M9318 9940 c-26 -257 -33 -350 -26 -350 4 0 8 26 9 58 0 31 3 66 6
77 10 38 24 200 21 240 -3 33 -5 29 -10 -25z"/>
<path d="M9408 9890 c-6 -13 -17 -122 -34 -344 -4 -42 -2 -66 4 -62 5 3 12 65
16 138 4 73 12 145 17 159 11 28 8 134 -3 109z"/>
<path d="M9278 9564 c-5 -4 -8 -39 -8 -78 1 -53 3 -67 11 -54 11 20 8 144 -3
132z"/>
<path d="M9424 9455 c0 -49 1 -71 3 -48 2 23 2 64 0 90 -2 26 -3 8 -3 -42z"/>
<path d="M6205 9493 c-22 -2 -87 -10 -145 -18 -58 -7 -139 -17 -180 -21 -41
-3 -84 -8 -95 -11 -20 -4 -165 -21 -406 -47 -227 -25 -241 -34 -238 -151 2
-80 18 -166 38 -203 6 -12 25 -24 44 -27 17 -3 280 -5 582 -3 565 3 582 4 607
42 4 6 8 97 8 202 0 212 1 209 -69 233 -33 11 -62 12 -146 4z"/>
<path d="M9362 9363 c1 -101 5 -89 10 30 2 37 0 67 -4 67 -5 0 -7 -44 -6 -97z"/>
<path d="M9263 9330 c0 -47 2 -66 4 -42 2 23 2 61 0 85 -2 23 -4 4 -4 -43z"/>
<path d="M9408 9344 c-5 -4 -8 -46 -8 -93 0 -59 3 -82 10 -75 6 6 10 45 8 93
-2 46 -6 79 -10 75z"/>
<path d="M9351 9230 c-6 -82 -5 -238 2 -231 4 4 6 66 4 137 -1 71 -4 113 -6
94z"/>
<path d="M9246 9218 c-10 -39 -7 -208 4 -208 6 0 10 45 10 115 0 63 -2 115 -4
115 -2 0 -6 -10 -10 -22z"/>
<path d="M9394 9010 c0 -69 1 -97 3 -62 2 34 2 90 0 125 -2 34 -3 6 -3 -63z"/>
<path d="M2066 8991 c-4 -5 0 -12 6 -15 9 -3 8 -8 -6 -17 -15 -9 -16 -13 -5
-20 11 -7 11 -14 -4 -39 -20 -33 -17 -39 7 -14 15 14 16 12 17 -23 2 -34 2
-35 6 -8 3 17 9 36 15 42 6 7 8 20 4 28 -3 8 0 15 6 15 7 0 3 6 -7 14 -16 12
-17 16 -6 30 12 14 11 16 -7 16 -12 0 -23 -4 -26 -9z"/>
<path d="M1890 8971 c31 -5 35 -10 38 -40 6 -58 -4 -79 -41 -84 -17 -2 6 -4
53 -4 57 0 72 2 45 6 l-40 6 0 55 0 55 35 6 c23 4 6 6 -45 6 -51 0 -68 -2 -45
-6z"/>
<path d="M2130 8930 c0 -5 9 -14 20 -20 22 -12 27 -1 8 18 -14 14 -28 16 -28
2z"/>
<path d="M9337 8913 c-4 -3 -7 -92 -7 -196 0 -105 2 -188 5 -185 4 4 13 388 9
388 0 0 -4 -3 -7 -7z"/>
<path d="M9232 8608 c-1 -148 1 -268 6 -268 4 0 6 80 4 177 -4 329 -8 360 -10
91z"/>
<path d="M9383 8828 c-4 -7 -10 -121 -13 -253 -5 -238 -5 -240 -22 -195 l-16
45 -1 -33 c-1 -42 45 -92 84 -92 15 0 24 4 20 10 -3 6 -15 10 -26 10 -19 0
-20 7 -17 260 2 143 2 260 1 260 -1 0 -5 -6 -10 -12z"/>
<path d="M9518 8293 c29 -2 74 -2 100 0 26 2 2 3 -53 3 -55 0 -76 -1 -47 -3z"/>
<path d="M9407 8243 c-49 -5 -60 -31 -59 -138 2 -102 19 -290 32 -335 5 -19
12 -63 14 -96 2 -34 8 -70 14 -80 5 -11 13 -46 17 -79 4 -33 10 -64 13 -70 4
-5 7 -12 7 -15 4 -43 111 -78 155 -50 11 7 0 10 -37 10 -49 0 -52 1 -61 33
-17 52 -24 123 -16 162 6 32 9 35 40 35 19 0 34 5 34 10 0 6 -15 10 -32 10
-27 1 -30 2 -15 11 29 17 19 29 -23 29 -27 0 -40 4 -40 13 0 23 92 14 101 -9
7 -18 8 -18 8 0 1 11 -6 27 -15 37 -13 14 -20 16 -35 6 -15 -9 -21 -8 -33 8
-15 20 -15 20 -16 0 -1 -15 -4 -12 -14 11 -8 17 -17 80 -21 140 -4 60 -11 116
-16 124 -10 16 -6 -58 9 -190 9 -80 6 -104 -11 -74 -36 62 -61 451 -30 461 9
3 13 -21 16 -89 l3 -93 2 103 c2 102 2 102 27 102 14 0 25 5 25 10 0 6 -1 9
-2 8 -2 -1 -20 -3 -41 -5z m23 -564 c0 -10 5 -19 10 -19 6 0 10 -4 10 -10 0
-20 -28 -9 -34 13 -9 33 -7 49 4 42 6 -3 10 -15 10 -26z m60 -18 c0 -12 -20
-25 -27 -18 -7 7 6 27 18 27 5 0 9 -4 9 -9z m-42 -64 c2 -10 -3 -17 -12 -17
-10 0 -16 9 -16 21 0 24 23 21 28 -4z m12 -60 c0 -13 3 -27 7 -31 4 -3 8 -13
9 -20 1 -7 5 -28 9 -46 11 -50 -18 -33 -30 17 -6 23 -13 45 -18 49 -13 14 -8
54 8 54 9 0 15 -9 15 -23z"/>
<path d="M9490 8238 c0 -5 33 -7 73 -7 76 2 68 6 -21 11 -28 2 -52 0 -52 -4z"/>
<path d="M5650 8092 c0 -11 33 -42 44 -42 10 0 62 -23 155 -69 118 -57 152
-77 226 -130 39 -28 94 -67 123 -86 111 -74 324 -310 435 -483 16 -24 31 -41
34 -38 3 3 6 84 7 180 0 96 4 177 7 181 4 3 20 -8 37 -25 24 -24 37 -29 58
-26 62 12 86 69 52 125 -21 34 -22 45 -19 217 3 174 2 183 -17 193 -25 13
-1142 16 -1142 3z"/>
<path d="M5346 7723 c-10 -11 -7 -791 4 -798 26 -16 153 97 188 168 83 167 65
364 -48 513 -39 51 -133 128 -144 117z"/>
<path d="M9653 7393 c15 -2 37 -2 50 0 12 2 0 4 -28 4 -27 0 -38 -2 -22 -4z"/>
<path d="M9650 7250 c-8 -5 -33 -10 -54 -10 -22 0 -37 -3 -34 -6 9 -9 168 7
168 17 0 12 -61 11 -80 -1z"/>
<path d="M9485 7210 c-21 -24 -32 -110 -16 -136 8 -15 10 -7 11 41 0 74 14
101 25 53 l9 -33 4 34 c2 19 11 41 20 48 15 11 14 12 -9 13 -14 0 -34 -9 -44
-20z"/>
<path d="M9521 7120 c-4 -23 0 -174 5 -179 8 -9 9 6 3 99 -3 52 -6 88 -8 80z"/>
<path d="M9484 6945 c0 -49 1 -71 3 -48 2 23 2 64 0 90 -2 26 -3 8 -3 -42z"/>
<path d="M9530 6848 c0 -48 5 -79 13 -86 9 -8 11 6 9 66 -5 103 -22 119 -22
20z"/>
<path d="M9491 6763 c0 -45 3 -84 7 -87 4 -2 6 28 4 67 -5 105 -10 114 -11 20z"/>
<path d="M9551 6668 c0 -43 2 -78 7 -78 4 0 6 24 4 52 -5 95 -9 104 -11 26z"/>
<path d="M9502 6580 c3 -93 18 -102 18 -11 0 38 -5 73 -10 76 -7 4 -9 -19 -8
-65z"/>
<path d="M9560 6518 c0 -37 4 -69 8 -72 5 -3 10 -33 11 -68 1 -34 5 -65 8 -68
3 -3 2 54 -2 125 -7 139 -25 196 -25 83z"/>
<path d="M9523 6410 c0 -41 2 -58 4 -37 2 20 2 54 0 75 -2 20 -4 3 -4 -38z"/>
<path d="M9530 6272 c0 -28 4 -53 9 -56 4 -3 12 -51 15 -106 4 -55 11 -102 15
-105 5 -2 12 -45 15 -95 4 -50 12 -90 18 -90 6 0 8 15 4 38 -28 190 -38 261
-49 349 -13 112 -27 145 -27 65z"/>
<path d="M9590 6247 c0 -31 5 -59 10 -62 6 -4 10 -25 10 -48 -2 -36 12 -161
25 -232 2 -11 11 -67 20 -125 28 -190 44 -284 53 -325 l10 -40 0 35 c1 19 -4
58 -9 85 -13 65 -36 213 -54 345 -8 58 -17 121 -20 140 -3 19 -11 88 -18 152
-14 128 -27 164 -27 75z"/>
<path d="M9457 5895 c3 -60 9 -119 13 -130 4 -11 11 -59 14 -106 4 -48 12
-113 17 -145 6 -33 15 -95 22 -139 7 -44 15 -84 18 -90 4 -5 10 -47 14 -92 4
-46 11 -83 16 -83 12 0 12 67 0 74 -4 3 -12 42 -16 87 -3 45 -11 89 -15 98 -5
9 -14 54 -20 101 -5 47 -12 99 -15 115 -3 17 -12 91 -21 165 -28 240 -33 267
-27 145z"/>
<path d="M9617 5703 c8 -60 16 -117 18 -128 2 -11 9 -60 16 -110 12 -98 33
-155 25 -70 -5 49 -31 231 -42 290 -3 17 -8 51 -11 78 -3 26 -8 47 -12 47 -4
0 -1 -48 6 -107z"/>
<path d="M9989 5581 c-148 -159 -210 -258 -208 -334 1 -23 3 -33 5 -22 25 118
83 209 228 358 42 42 70 77 62 77 -7 0 -47 -36 -87 -79z"/>
<path d="M1264 5000 c0 -102 2 -143 3 -92 2 50 2 134 0 185 -1 50 -3 9 -3 -93z"/>
<path d="M9786 5088 c2 -49 8 -96 13 -105 5 -10 14 -40 19 -68 21 -104 33
-150 41 -165 5 -9 12 -36 16 -60 4 -25 11 -50 16 -55 4 -6 8 -20 8 -30 -1 -11
7 -47 16 -80 9 -33 21 -85 27 -115 6 -30 14 -59 18 -65 4 -5 11 -30 15 -55 4
-25 11 -49 15 -55 4 -5 11 -34 15 -62 4 -29 11 -55 15 -58 4 -3 11 -29 15 -58
4 -28 12 -63 17 -77 10 -24 23 -74 48 -185 6 -27 15 -59 20 -70 5 -11 12 -40
16 -65 3 -25 10 -49 14 -55 4 -5 11 -30 15 -55 4 -25 11 -49 15 -55 4 -5 13
-41 20 -80 7 -38 15 -74 19 -80 6 -10 15 -48 41 -160 6 -27 15 -57 19 -65 5
-9 12 -36 16 -60 4 -25 10 -49 14 -55 3 -5 13 -44 22 -85 36 -158 40 -175 48
-190 5 -9 12 -36 16 -60 4 -25 11 -49 15 -55 4 -5 11 -30 15 -55 4 -24 11 -51
15 -60 5 -8 13 -34 19 -57 11 -42 93 -144 105 -132 4 4 -9 24 -29 45 -43 45
-71 99 -80 154 -4 22 -10 42 -15 45 -4 3 -11 29 -15 58 -4 28 -11 57 -15 62
-4 6 -11 30 -15 55 -4 25 -10 50 -14 55 -5 9 -22 73 -51 200 -6 28 -14 57 -17
65 -7 16 -24 83 -43 165 -6 28 -15 59 -20 70 -5 11 -15 49 -21 85 -7 36 -15
70 -19 75 -4 6 -11 31 -14 57 -4 26 -11 50 -15 53 -5 2 -12 29 -16 60 -3 30
-10 57 -15 60 -4 2 -11 26 -15 52 -4 27 -10 53 -15 58 -4 6 -11 33 -15 60 -4
28 -10 55 -15 60 -4 6 -13 42 -20 80 -7 39 -15 75 -19 80 -3 6 -11 33 -18 60
-6 28 -19 79 -28 115 -9 36 -22 88 -29 115 -7 28 -15 57 -19 65 -3 8 -13 47
-21 85 -8 39 -21 97 -30 130 -8 33 -19 83 -26 110 -6 28 -15 57 -19 65 -5 9
-12 36 -16 60 -4 24 -11 51 -16 60 -8 14 -21 80 -39 200 -7 47 -7 42 -4 -32z"/>
<path d="M1560 4879 c0 -124 3 -188 10 -184 6 4 10 78 10 191 0 116 -4 184
-10 184 -6 0 -10 -70 -10 -191z"/>
<path d="M1248 4724 c-5 -4 -8 -86 -8 -183 0 -119 3 -172 10 -165 7 7 9 75 8
183 -2 95 -6 169 -10 165z"/>
<path d="M1554 4385 c0 -110 2 -156 3 -103 2 53 2 143 0 200 -1 57 -3 13 -3
-97z"/>
<path d="M6217 4502 l-57 -57 -2 -265 -3 -265 28 -29 c36 -36 48 -27 13 11
l-26 28 0 257 0 256 62 56 61 56 1703 0 c1626 0 1736 -2 1711 -26 -2 -3 -211
-7 -463 -9 -912 -9 -1357 -15 -1359 -18 -5 -7 18 -247 40 -417 33 -259 55
-407 105 -700 22 -135 43 -276 46 -315 6 -78 24 -114 24 -48 l0 41 203 7 c111
4 212 11 224 16 12 4 72 9 135 10 112 2 113 1 116 -22 2 -13 5 -31 9 -39 3 -8
4 -47 3 -87 -2 -111 17 -96 24 20 10 144 6 137 81 137 35 0 75 4 89 9 35 14
44 -2 48 -84 3 -65 2 -70 -18 -73 -12 -2 -24 -11 -27 -21 -4 -15 -17 -18 -78
-20 -40 -1 -76 -4 -80 -6 -4 -3 -10 -25 -14 -50 l-6 -46 -37 7 c-20 4 -45 11
-54 15 -35 18 -141 10 -183 -14 -40 -22 -40 -23 -43 -89 l-3 -67 -42 -4 c-36
-3 -34 -4 16 -5 l57 -2 0 48 c0 77 13 87 117 87 79 0 92 -3 130 -27 23 -16 43
-37 46 -50 4 -21 4 -20 6 4 1 30 -36 65 -78 74 -14 3 -34 9 -43 15 -23 12
-115 12 -123 -1 -3 -5 -15 -10 -25 -10 -10 0 -24 -8 -29 -17 -9 -16 -10 -16
-11 -2 0 10 16 24 37 34 30 15 54 17 132 12 54 -3 97 -10 99 -16 5 -14 42 -14
42 -1 0 6 4 10 8 10 5 0 14 -48 20 -107 16 -162 67 -474 81 -501 4 -9 11 -34
15 -54 4 -21 10 -38 14 -38 4 0 13 -13 19 -30 l11 -30 189 0 c104 0 195 5 203
10 10 6 -50 10 -180 10 -107 0 -200 4 -206 8 -6 4 -14 18 -18 32 -4 14 -11 34
-17 45 -19 42 -57 241 -83 435 -7 52 -16 102 -19 110 -3 8 -8 56 -11 105 l-6
90 52 3 c29 1 75 3 103 5 l50 2 7 -65 c4 -36 16 -155 28 -265 12 -118 26 -205
33 -212 10 -10 35 -11 112 -3 55 6 170 17 255 26 85 8 177 18 203 21 l49 5 -6
42 c-8 49 1 61 54 69 36 5 219 35 255 42 11 2 51 8 89 15 38 6 73 13 77 15 12
8 39 -6 39 -21 0 -8 4 -22 10 -32 12 -22 31 -105 37 -165 9 -86 -44 -154 -137
-177 -25 -6 -54 -13 -65 -16 -93 -26 -276 -60 -417 -77 -53 -7 -100 -16 -105
-21 -17 -18 349 38 489 74 188 49 232 77 244 157 7 49 -3 170 -16 178 -4 3
-11 26 -14 52 -4 27 -16 82 -27 123 -26 95 -45 165 -71 260 -26 99 -33 124
-53 195 -30 107 -55 199 -70 255 -8 30 -21 80 -29 110 -8 30 -29 106 -45 168
-17 63 -33 117 -36 122 -3 4 -11 36 -19 71 -8 35 -29 114 -46 174 -45 159 -71
254 -81 300 -21 84 -51 175 -59 175 -5 0 -10 12 -12 28 l-3 27 -1720 3 -1721
2 -57 -58z m2399 -615 c1 -1 5 -54 9 -117 4 -63 10 -119 12 -123 3 -5 7 -36 9
-70 2 -34 9 -107 14 -162 6 -55 12 -127 14 -160 3 -33 5 -60 6 -60 1 0 3 -7 5
-16 2 -14 -9 -17 -75 -18 -43 -1 -91 -5 -107 -9 -15 -5 -53 -8 -83 -7 l-55 0
-7 50 c-5 28 -10 77 -13 110 -2 33 -9 105 -14 160 -6 55 -12 134 -15 175 -3
41 -8 108 -11 148 -4 39 -3 72 2 73 10 1 54 6 155 16 42 5 80 12 84 16 6 5 64
1 70 -6z m503 -229 c4 -13 7 -42 6 -66 -1 -23 2 -45 7 -48 14 -9 10 -194 -4
-195 -7 -1 -26 -3 -43 -5 -16 -2 -75 -6 -131 -9 l-101 -4 -6 112 c-4 62 -7
136 -7 165 l0 52 43 1 c23 0 62 0 87 0 25 -1 52 3 60 9 8 5 30 10 48 10 25 0
34 -5 41 -22z m808 -310 c4 -7 9 -38 9 -68 2 -85 15 -203 25 -222 5 -10 17
-15 29 -13 18 4 20 -2 20 -56 0 -45 -3 -59 -15 -59 -8 0 -18 -8 -23 -17 -10
-20 -8 -153 3 -226 4 -29 3 -53 -2 -58 -11 -11 -166 -28 -408 -43 -60 -4 -123
-10 -140 -13 -16 -3 -60 -7 -96 -8 l-67 -2 -6 81 c-4 44 -10 110 -14 146 -7
62 -8 65 -39 75 -31 9 -33 12 -33 58 0 36 5 53 20 65 22 20 27 94 15 228 l-8
81 39 7 c22 4 80 9 129 12 50 2 144 9 210 14 66 5 155 12 198 14 43 2 81 7 85
10 10 11 61 6 69 -6z m-1117 -283 c0 -14 -4 -25 -10 -25 -11 0 -14 33 -3 43
11 11 13 8 13 -18z m230 -135 c0 -5 -7 -10 -15 -10 -8 0 -15 5 -15 10 0 6 7
10 15 10 8 0 15 -4 15 -10z"/>
<path d="M7769 4506 c-2 -3 -298 -6 -657 -7 -358 -1 -650 -5 -647 -7 6 -7
1308 -2 1314 4 2 2 2 6 -1 9 -2 3 -7 3 -9 1z"/>
<path d="M6330 4191 c0 -165 -3 -306 -6 -315 -4 -10 -1 -16 7 -16 12 0 14 55
14 307 l0 307 47 1 c26 1 51 4 54 8 4 4 -20 7 -54 7 l-62 0 0 -299z"/>
<path d="M1234 4100 c0 -102 2 -143 3 -92 2 50 2 134 0 185 -1 50 -3 9 -3 -93z"/>
<path d="M4738 4224 c-3 -3 -35 -11 -70 -19 -37 -8 -95 -32 -143 -59 -103 -59
-143 -62 -191 -10 -20 20 -34 46 -34 60 0 13 -5 24 -10 24 -11 0 -4 -42 12
-72 4 -9 23 -29 42 -43 54 -41 77 -36 246 56 47 26 104 41 178 46 45 3 85 10
88 15 6 9 -109 12 -118 2z"/>
<path d="M4894 4221 c3 -4 39 -11 80 -14 42 -3 81 -9 88 -13 7 -5 49 -21 93
-36 65 -23 96 -28 175 -28 96 0 96 0 134 35 35 32 44 35 98 35 69 0 103 -19
138 -76 18 -28 21 -46 18 -89 -5 -61 -45 -125 -79 -125 -10 0 -19 -4 -19 -10
0 -37 77 22 101 77 33 78 21 138 -39 196 -56 54 -180 52 -237 -4 -29 -27 -35
-29 -117 -29 -82 0 -107 6 -194 45 -16 8 -49 17 -72 21 -24 4 -45 11 -48 15
-3 5 -32 9 -65 9 -33 0 -58 -4 -55 -9z"/>
<path d="M4860 4169 c-101 -16 -170 -83 -170 -164 0 -50 16 -35 23 21 5 51 44
101 87 111 14 3 30 9 35 14 6 4 28 9 50 11 22 2 36 6 30 9 -5 3 -30 2 -55 -2z"/>
<path d="M5009 4151 c120 -36 241 -151 257 -244 8 -43 24 -60 24 -24 0 34 -45
121 -87 167 -52 59 -145 110 -207 116 l-51 4 64 -19z"/>
<path d="M3630 4152 c0 -5 34 -12 77 -16 102 -8 141 -5 73 6 -104 17 -150 20
-150 10z"/>
<path d="M7354 4139 c-3 -5 9 -9 26 -9 61 0 175 -43 255 -96 66 -44 99 -75
163 -156 68 -86 110 -173 118 -243 4 -31 11 -58 17 -62 12 -7 2 98 -12 125 -5
9 -19 40 -32 67 -32 72 -132 199 -192 247 -44 34 -117 74 -202 109 -33 14
-135 27 -141 18z"/>
<path d="M4085 4133 c-11 -2 -29 -8 -40 -13 -74 -35 -206 -43 -330 -21 -71 12
-210 7 -220 -9 -3 -4 -20 -11 -39 -14 -19 -4 -39 -13 -46 -21 -7 -8 -18 -15
-24 -15 -20 0 -83 -72 -116 -134 -21 -40 -33 -77 -35 -110 -1 -28 0 -38 2 -21
3 16 8 34 12 40 5 5 11 23 15 39 10 41 73 134 105 154 14 9 28 19 31 22 13 13
80 41 125 51 64 15 144 15 220 -1 68 -13 228 -8 248 8 7 6 32 14 55 18 23 4
45 11 48 15 3 5 28 9 56 9 94 0 143 -63 142 -181 0 -66 0 -67 -61 -142 -53
-66 -62 -84 -68 -130 -4 -30 -5 -63 -2 -73 3 -11 5 0 6 23 1 56 30 118 81 176
58 65 71 121 52 214 -14 63 -27 86 -63 107 -26 15 -105 20 -154 9z"/>
<path d="M7200 4133 c-14 -3 -29 -9 -34 -14 -6 -5 -17 -9 -25 -9 -29 0 -195
-87 -248 -128 -63 -50 -156 -102 -183 -102 -11 0 -20 -4 -20 -9 0 -14 80 7
120 31 19 12 60 41 90 64 30 24 89 59 130 79 41 20 82 40 90 45 9 4 31 11 50
15 19 4 40 11 45 15 6 5 26 10 45 13 l35 4 -35 0 c-19 0 -46 -2 -60 -4z"/>
<path d="M1538 4094 c-5 -4 -8 -95 -8 -203 1 -135 4 -191 11 -179 11 20 8 394
-3 382z"/>
<path d="M4544 4052 c-44 -32 -238 -237 -281 -297 -42 -58 -51 -89 -57 -193
-5 -82 -11 -104 -45 -175 -21 -45 -51 -95 -66 -112 -14 -16 -43 -48 -62 -70
-123 -137 -152 -213 -123 -320 22 -79 40 -112 87 -156 73 -70 223 -130 356
-144 37 -4 69 -11 72 -15 3 -4 38 -11 77 -15 40 -4 78 -11 84 -16 6 -5 60 -11
120 -13 88 -3 97 -2 44 4 -142 17 -236 32 -255 40 -11 5 -49 13 -85 19 -125
19 -271 60 -320 90 -74 45 -124 96 -87 90 27 -6 84 15 110 40 16 14 44 49 62
76 51 76 89 115 113 115 14 0 33 -15 51 -40 33 -46 60 -69 110 -93 49 -24 82
-21 129 12 46 34 59 73 42 125 -9 28 -8 40 4 65 35 66 5 113 -92 147 -70 24
-83 40 -51 62 51 35 100 86 116 119 20 42 7 73 -45 103 -31 19 -34 24 -29 55
3 19 17 50 31 68 57 75 41 141 -38 152 -25 4 -51 3 -58 -1 -7 -5 -24 -9 -38
-10 -63 -4 -109 -38 -134 -98 -25 -60 -23 -72 25 -217 24 -71 24 -84 -2 -120
-24 -34 -58 -38 -110 -12 -19 9 -36 17 -38 19 -1 1 6 22 18 46 23 49 41 132
50 233 6 72 18 98 70 158 138 160 279 297 306 297 34 0 48 -24 40 -67 -24
-134 -14 -240 31 -308 22 -34 103 -92 155 -111 60 -22 148 -35 125 -19 -9 7
-36 15 -61 18 -95 13 -190 83 -228 167 -18 40 -19 57 -14 175 5 95 3 135 -5
143 -20 20 -63 13 -104 -16z m21 -318 c15 -20 20 -54 7 -54 -8 0 -17 -16 -41
-66 -7 -16 -17 -37 -22 -46 -16 -32 -10 -47 36 -80 48 -36 55 -59 28 -98 -20
-29 -68 -75 -100 -97 -44 -29 -18 -77 48 -89 19 -4 49 -18 67 -31 36 -27 41
-57 17 -104 -14 -27 -14 -33 0 -61 22 -44 19 -60 -16 -96 -37 -37 -65 -47
-114 -38 -35 7 -103 63 -137 114 -18 27 -68 33 -94 11 -9 -8 -41 -48 -70 -89
-80 -114 -113 -138 -173 -125 -42 9 -69 83 -40 112 6 6 13 45 16 87 5 70 8 79
36 99 83 62 97 82 97 139 1 37 6 60 19 75 18 22 21 22 55 8 48 -20 99 -19 127
4 21 17 24 28 23 78 -1 35 -9 75 -20 98 -23 49 -26 159 -4 199 26 50 99 77
193 72 33 -2 52 -9 62 -22z m-465 -521 c0 -33 -18 -55 -82 -107 -47 -37 -48
-38 -48 -96 0 -32 -4 -61 -9 -64 -5 -3 -12 -22 -15 -41 -10 -49 -23 -44 -32
12 -8 53 12 123 50 179 28 42 119 143 129 144 4 0 7 -12 7 -27z"/>
<path d="M5280 4060 c0 -5 30 -10 67 -12 l67 -3 9 -39 c11 -45 76 -116 107
-116 25 0 27 20 3 20 -38 1 -91 67 -107 133 -6 26 -8 27 -76 27 -39 0 -70 -4
-70 -10z"/>
<path d="M5291 3983 c18 -92 60 -144 270 -326 150 -132 189 -173 189 -204 0
-12 5 -23 10 -23 14 0 12 27 -5 59 -8 16 -84 90 -169 165 -85 75 -175 159
-200 187 -49 54 -86 126 -86 165 0 13 -4 24 -9 24 -5 0 -5 -20 0 -47z"/>
<path d="M4691 3853 c-1 -28 4 -55 9 -58 6 -3 10 -14 10 -23 0 -36 52 -91 114
-121 169 -81 389 -46 446 71 21 44 27 83 10 73 -5 -3 -10 -17 -10 -30 0 -34
-54 -92 -109 -118 -39 -18 -63 -22 -151 -21 -93 0 -111 3 -162 28 -75 36 -125
94 -133 155 -4 25 -10 57 -15 71 -7 20 -9 15 -9 -27z"/>
<path d="M5560 3889 c0 -5 11 -9 25 -9 14 0 25 4 25 9 0 5 -11 9 -25 9 -14 0
-25 -4 -25 -9z"/>
<path d="M1220 3821 c-11 -22 -14 -379 -2 -367 6 6 21 386 15 386 -1 0 -7 -9
-13 -19z"/>
<path d="M6320 3810 c-10 -7 -11 -10 -2 -10 9 0 12 -115 12 -540 l0 -540 -35
0 c-19 0 -43 4 -53 10 -9 5 -29 14 -44 20 l-28 10 0 515 0 515 49 0 c28 0 53
5 56 10 4 6 -17 10 -54 10 l-61 0 0 -530 0 -529 30 -16 c43 -22 130 -31 255
-25 136 7 225 36 293 96 46 41 47 42 46 102 -1 53 -32 166 -54 197 -4 6 -11
26 -15 45 -4 19 -11 40 -16 46 -5 7 -12 42 -16 78 -7 77 -23 99 -23 32 0 -25
4 -47 9 -50 4 -3 11 -25 14 -49 3 -23 13 -56 21 -72 9 -17 16 -37 16 -46 0 -8
4 -19 9 -25 16 -18 52 -157 47 -180 -8 -32 -69 -91 -114 -110 -105 -44 -154
-55 -235 -52 l-82 3 -2 544 c-1 299 -4 545 -5 547 -2 1 -10 -1 -18 -6z"/>
<path d="M6475 3800 c3 -5 41 -10 83 -10 102 0 122 -13 122 -80 0 -27 -4 -52
-10 -55 -5 -3 -10 -25 -10 -48 0 -27 3 -38 10 -31 6 6 11 52 13 103 l2 94 -30
18 c-33 20 -192 28 -180 9z"/>
<path d="M5342 3738 c-20 -26 -36 -118 -21 -118 5 0 9 14 9 31 0 61 30 86 61
52 9 -10 48 -47 87 -81 65 -58 70 -65 56 -79 -35 -35 -63 -91 -59 -119 4 -34
-22 -92 -48 -108 -14 -9 -21 -6 -37 14 -24 30 -50 107 -60 175 -7 44 -7 42 -4
-19 2 -51 11 -84 31 -125 24 -49 32 -56 61 -59 30 -3 34 0 52 40 11 24 20 61
20 82 0 30 8 49 35 82 19 23 35 48 35 56 0 11 -191 188 -203 188 -3 0 -9 -6
-15 -12z"/>
<path d="M3216 3703 c-5 -16 -2 -31 6 -39 11 -12 13 -7 10 26 -5 47 -8 49 -16
13z"/>
<path d="M3232 3583 c17 -112 76 -194 166 -234 132 -58 312 -162 399 -230 35
-27 65 -49 68 -49 19 0 205 243 237 311 44 91 74 210 49 195 -4 -3 -11 -27
-15 -54 -7 -52 -40 -132 -56 -132 -4 0 -16 8 -26 17 -12 13 -38 19 -89 21 -70
4 -74 6 -118 48 -42 40 -51 44 -96 44 -43 0 -53 -4 -75 -31 -20 -23 -26 -42
-26 -76 0 -39 5 -50 35 -78 19 -19 48 -36 65 -40 16 -4 32 -11 35 -16 8 -11
115 -12 115 0 0 4 -31 11 -69 13 -132 10 -207 99 -150 179 17 25 27 29 67 29
40 0 51 -5 84 -37 34 -33 44 -37 100 -41 66 -4 117 -21 138 -47 10 -12 7 -20
-19 -46 -17 -17 -31 -35 -31 -40 0 -15 -138 -186 -155 -192 -8 -4 -17 -2 -20
4 -9 14 -155 115 -217 149 -29 17 -103 54 -164 84 -116 57 -162 96 -191 165
-8 20 -19 44 -24 53 -5 10 -9 34 -9 53 0 19 -4 35 -8 35 -5 0 -5 -26 0 -57z"/>
<path d="M1526 3615 c-3 -9 -5 -103 -4 -208 l2 -192 6 205 c3 113 4 206 4 208
-1 2 -4 -4 -8 -13z"/>
<path d="M5050 3560 l-75 -6 78 -2 c46 -1 77 2 77 8 0 6 -1 9 -2 8 -2 -1 -37
-4 -78 -8z"/>
<path d="M5156 3550 c13 -5 27 -28 39 -66 11 -33 22 -63 26 -69 3 -5 10 -27
13 -49 4 -21 11 -46 16 -55 5 -9 14 -38 20 -66 6 -27 15 -68 20 -90 5 -22 9
-59 10 -82 0 -23 5 -45 11 -49 9 -5 10 8 6 47 -8 71 -49 255 -66 294 -5 11
-21 59 -37 108 -25 80 -30 87 -53 86 -24 0 -24 -1 -5 -9z"/>
<path d="M6650 3465 c0 -47 3 -85 8 -85 4 0 7 38 7 85 0 47 -3 85 -7 85 -5 0
-8 -38 -8 -85z"/>
<path d="M7927 3450 c-17 -84 -25 -162 -24 -265 l0 -110 8 120 c12 171 13 179
22 186 5 3 7 28 5 55 -3 48 -4 49 -11 14z"/>
<path d="M5750 3392 c0 -30 -51 -92 -76 -92 -7 0 -15 -4 -19 -9 -8 -14 33 -4
62 14 34 23 68 115 42 115 -5 0 -9 -13 -9 -28z"/>
<path d="M1207 3373 c-4 -3 -6 -90 -5 -192 l2 -186 6 190 c6 211 6 197 -3 188z"/>
<path d="M3910 3292 c0 -4 18 -6 40 -4 22 2 40 6 40 8 0 2 -18 4 -40 4 -22 0
-40 -3 -40 -8z"/>
<path d="M5483 3279 c-56 -36 -65 -70 -57 -226 6 -131 5 -142 -19 -210 -25
-72 -25 -90 3 -72 8 5 29 9 47 9 17 0 34 3 36 8 3 4 -15 5 -40 3 -41 -3 -45
-1 -39 15 4 11 10 33 13 49 2 17 9 39 15 51 9 20 8 48 -8 227 -4 45 -2 67 5
67 6 0 11 6 11 14 0 8 17 29 38 46 32 27 44 31 85 28 26 -2 47 0 47 5 0 16
-105 6 -137 -14z"/>
<path d="M1508 3114 c-5 -4 -8 -93 -8 -198 0 -129 3 -187 10 -180 7 7 9 80 8
198 -2 103 -6 184 -10 180z"/>
<path d="M7912 3013 c5 -32 11 -65 15 -73 8 -19 30 -124 44 -210 6 -36 15 -74
20 -86 20 -40 -4 -262 -30 -284 -3 -3 -19 -24 -35 -47 -16 -24 -32 -43 -36
-43 -17 0 -100 -90 -112 -122 -7 -18 -13 -63 -12 -100 l1 -68 -36 -5 c-20 -4
-43 -10 -52 -15 -9 -4 -38 -12 -65 -15 -27 -4 -53 -10 -59 -14 -5 -3 -48 -14
-95 -24 -47 -9 -114 -24 -150 -33 -36 -8 -90 -20 -120 -26 -30 -6 -59 -14 -65
-18 -5 -4 -35 -11 -65 -15 -30 -4 -59 -10 -65 -14 -5 -3 -35 -11 -65 -18 -105
-23 -235 -52 -305 -68 -151 -35 -189 -39 -194 -24 -9 28 -101 116 -144 137
-24 12 -61 22 -81 22 l-36 0 0 50 0 50 69 0 c39 0 73 5 76 10 3 6 20 10 36 10
29 0 102 25 162 56 16 8 32 14 37 14 11 0 161 73 210 102 87 51 121 51 228 2
64 -30 143 -44 232 -42 l65 1 -80 7 c-80 7 -153 22 -190 40 -138 64 -166 64
-268 1 -37 -22 -70 -41 -73 -41 -3 0 -38 -16 -79 -35 -41 -19 -86 -37 -100
-41 -14 -3 -28 -10 -31 -15 -3 -5 -13 -9 -22 -9 -9 0 -30 -7 -47 -16 -19 -10
-67 -18 -132 -21 l-103 -6 0 -63 0 -64 34 0 c44 0 124 -42 169 -88 27 -29 62
-86 101 -169 2 -2 120 23 196 42 36 9 88 21 115 26 28 5 59 14 70 19 11 5 40
12 65 16 25 3 50 9 55 12 6 4 46 14 90 24 44 10 109 25 145 33 36 9 88 21 115
26 28 5 59 14 70 19 11 5 40 12 65 16 25 3 50 9 55 13 6 3 35 11 65 18 62 13
192 44 290 68 36 9 88 21 115 26 28 5 59 14 70 19 19 9 80 23 175 39 l45 8
-40 1 c-40 1 -68 -4 -180 -32 -33 -8 -82 -20 -110 -26 -27 -6 -57 -14 -65 -17
-8 -4 -40 -12 -70 -19 -30 -6 -64 -14 -75 -17 -33 -9 -156 -38 -215 -50 -30
-7 -59 -15 -65 -18 -5 -4 -30 -10 -55 -13 -25 -4 -54 -11 -65 -16 -11 -5 -42
-14 -70 -19 -27 -6 -90 -19 -140 -31 -49 -12 -112 -25 -140 -31 -27 -5 -57
-13 -65 -16 -8 -4 -40 -12 -70 -19 -30 -7 -84 -20 -120 -29 -36 -9 -87 -21
-115 -27 -27 -5 -57 -12 -65 -16 -8 -3 -28 -7 -43 -9 -22 -2 -30 2 -37 23 -13
34 -13 34 9 34 11 0 22 4 25 9 3 5 32 12 63 16 32 4 63 10 68 13 6 4 48 15 95
25 47 9 114 24 150 33 36 8 90 20 120 26 30 6 60 14 65 18 6 4 35 11 65 15 30
4 60 10 65 14 6 3 35 11 65 18 58 12 204 45 305 68 33 8 85 19 115 25 30 7 62
14 70 18 8 3 40 11 70 18 30 7 78 18 105 24 73 17 85 36 85 131 0 72 2 79 19
79 11 0 22 4 25 9 3 5 25 12 49 15 59 9 107 40 107 68 -1 22 -1 22 -17 -4 -13
-21 -34 -33 -88 -48 -124 -37 -115 -28 -115 -125 0 -97 3 -94 -110 -120 -30
-7 -63 -16 -72 -20 -16 -6 -18 0 -18 66 0 88 20 129 90 182 52 39 93 90 105
127 4 14 13 31 19 39 15 19 15 303 -1 322 -6 8 -14 41 -18 74 -4 33 -10 65
-15 70 -4 6 -11 33 -15 60 -11 83 -26 145 -34 145 -5 0 -4 -26 1 -57z"/>
<path d="M8106 2900 c3 -41 9 -81 14 -90 4 -8 11 -46 15 -85 4 -38 10 -74 14
-80 5 -9 21 -106 36 -219 3 -22 7 -42 10 -44 8 -9 4 70 -6 123 -10 49 -21 114
-54 300 -27 154 -35 181 -29 95z"/>
<path d="M8820 2948 c0 -28 0 -28 70 -28 40 0 70 4 70 10 0 6 -25 10 -56 10
-42 0 -60 4 -70 18 -12 15 -13 14 -14 -10z"/>
<path d="M5307 2947 c-4 -10 -7 -26 -7 -35 0 -27 -62 -144 -107 -204 -24 -32
-65 -74 -91 -93 -26 -19 -52 -39 -58 -44 -6 -5 -25 -12 -42 -16 -18 -3 -34
-11 -37 -16 -4 -5 -21 -9 -40 -9 -19 0 -36 -4 -39 -8 -3 -5 19 -5 49 -1 100
13 219 95 284 194 14 22 28 42 31 45 6 6 43 84 59 127 7 17 11 42 9 55 -3 20
-4 21 -11 5z"/>
<path d="M1187 2908 c-9 -25 -6 -348 4 -348 5 0 9 74 9 180 0 99 -2 180 -4
180 -2 0 -6 -6 -9 -12z"/>
<path d="M3085 2860 c-3 -5 -18 -10 -33 -10 -15 0 -49 -13 -77 -28 l-50 -27
-3 -420 c-3 -444 1 -492 42 -520 17 -13 105 -15 574 -15 590 0 585 0 609 -48
4 -9 10 -154 13 -322 l6 -305 -1 318 0 319 -28 24 -28 24 -558 0 -558 0 -27
25 -26 24 0 444 0 445 57 28 c53 27 64 29 178 29 74 0 127 -4 136 -11 8 -6 26
-14 42 -18 33 -8 118 -58 172 -102 40 -32 62 -53 206 -188 186 -176 375 -314
514 -375 28 -12 57 -26 66 -31 9 -5 38 -12 65 -15 27 -4 54 -12 60 -16 6 -5
56 -11 110 -13 85 -4 91 -3 39 4 -162 24 -211 33 -220 41 -5 5 -15 9 -23 9
-21 0 -168 71 -233 113 -66 42 -234 172 -298 231 -25 22 -88 82 -141 131 -52
50 -115 106 -140 126 -48 39 -137 89 -157 89 -7 0 -13 4 -13 10 0 5 -23 12
-50 16 -28 4 -53 11 -56 15 -7 12 -161 11 -169 -1z"/>
<path d="M4317 2792 c-22 -24 -22 -42 0 -42 15 0 14 -2 -3 -15 -17 -13 -17
-14 -1 -15 11 0 17 -8 17 -25 0 -13 -8 -29 -17 -35 -15 -9 -13 -10 12 -8 27 3
30 6 27 36 -3 39 9 41 26 5 10 -23 10 -29 -3 -36 -8 -4 -15 -13 -15 -18 0 -6
13 -1 29 10 36 26 37 26 44 1 6 -24 30 -26 48 -4 11 13 9 14 -14 9 -30 -8 -36
5 -12 25 11 9 15 27 13 63 -2 41 -7 51 -25 58 -36 13 -67 -3 -68 -36 0 -16 -6
-30 -12 -33 -15 -4 -17 14 -3 23 19 12 10 22 -16 17 -18 -3 -25 -1 -20 6 4 6
14 8 23 5 10 -4 14 -2 11 7 -7 21 -23 22 -41 2z m121 -69 c-10 -2 -26 -2 -35
0 -10 3 -2 5 17 5 19 0 27 -2 18 -5z"/>
<path d="M4507 2803 c-4 -3 -7 -21 -7 -40 0 -26 5 -36 23 -43 17 -7 18 -9 5
-9 -25 -1 -23 -21 2 -21 29 0 25 -17 -7 -28 l-28 -10 35 -1 c19 0 42 4 50 9
13 8 12 10 -2 10 -10 0 -18 5 -18 10 0 6 7 10 15 10 21 0 19 20 -2 21 -14 0
-15 2 -3 6 22 9 26 19 22 58 -4 33 -6 35 -41 35 -21 0 -41 -3 -44 -7z m40 -19
c-3 -3 -12 -4 -19 -1 -8 3 -5 6 6 6 11 1 17 -2 13 -5z m-2 -34 c3 -5 -1 -10
-9 -10 -9 0 -16 5 -16 10 0 6 4 10 9 10 6 0 13 -4 16 -10z m30 0 c3 -5 1 -10
-4 -10 -6 0 -11 5 -11 10 0 6 2 10 4 10 3 0 8 -4 11 -10z"/>
<path d="M4610 2801 c0 -5 10 -12 23 -14 22 -4 22 -4 -2 -6 -20 -1 -21 -3 -11
-16 9 -11 9 -15 1 -15 -8 0 -7 -7 3 -22 9 -12 16 -32 17 -43 0 -20 0 -20 8 0
5 11 7 25 6 30 -1 6 0 7 2 3 8 -13 23 -9 23 7 0 7 -8 18 -17 24 -17 9 -17 10
0 28 24 28 22 33 -18 33 -19 0 -35 -4 -35 -9z"/>
<path d="M4755 2791 c-3 -10 -14 -26 -25 -36 -24 -21 -26 -37 -5 -29 14 6 55
64 55 78 0 14 -19 5 -25 -13z"/>
<path d="M4824 2782 c17 -33 54 -68 62 -59 7 7 -44 72 -64 81 -9 4 -9 -1 2
-22z"/>
<path d="M4917 2804 c-4 -4 -7 -43 -7 -86 l0 -78 80 0 c44 0 83 0 86 0 3 0 6
37 6 83 l0 82 -79 3 c-43 1 -82 0 -86 -4z m45 -30 c-22 -15 -42 -12 -42 7 0 5
15 9 32 9 32 0 32 0 10 -16z m108 1 c0 -8 -4 -15 -10 -15 -5 0 -10 4 -10 9 0
5 -10 12 -22 14 -17 3 -14 5 10 6 22 1 32 -3 32 -14z m-120 -44 c0 -11 5 -23
12 -27 7 -5 5 -11 -7 -21 -11 -7 -22 -13 -27 -13 -10 0 -11 64 -1 73 12 13 23
7 23 -12z m120 -21 c0 -28 -4 -38 -13 -34 -8 3 -11 17 -9 39 6 48 22 44 22 -5z
m-90 -45 c0 -9 -9 -15 -22 -15 -21 0 -21 0 -2 15 24 18 24 18 24 0z m56 0 l29
-15 -32 0 c-23 0 -33 5 -33 15 0 18 1 18 36 0z"/>
<path d="M4766 2716 c-10 -25 -25 -47 -34 -51 -8 -3 -12 -8 -9 -12 10 -9 147
-9 147 0 0 13 -32 57 -41 57 -5 0 -7 -11 -3 -25 6 -24 4 -25 -25 -23 -35 3
-37 11 -16 52 9 16 12 33 7 38 -4 4 -16 -12 -26 -36z"/>
<path d="M5435 2735 c-93 -51 -139 -87 -238 -189 -58 -60 -58 -60 -55 -116 l3
-55 208 -5 209 -5 24 -30 24 -30 -292 -3 c-195 -1 -296 -6 -305 -13 -10 -9
-13 -59 -13 -224 0 -193 2 -213 18 -228 17 -15 67 -17 507 -17 l489 0 -30 -32
c-50 -54 -66 -87 -71 -148 -4 -40 0 -75 12 -112 9 -30 15 -66 13 -79 -4 -30
-59 -66 -158 -104 -41 -16 -79 -32 -84 -37 -6 -4 -17 -8 -25 -8 -9 -1 -34 -9
-56 -20 -22 -11 -46 -19 -53 -20 -7 0 -20 -4 -30 -10 -26 -14 -110 -50 -118
-50 -10 0 -185 -68 -206 -80 -10 -6 -23 -10 -30 -10 -7 0 -26 -7 -41 -15 -15
-8 -42 -19 -60 -24 -46 -14 -119 -40 -142 -51 -58 -27 -98 -39 -109 -33 -8 4
-8 3 0 -6 9 -10 29 -7 90 14 44 15 83 31 89 36 5 5 16 9 25 9 8 0 28 7 44 15
15 8 33 15 40 15 6 1 29 9 51 20 22 11 44 19 49 20 12 0 186 67 208 80 10 6
23 10 30 10 7 1 31 9 53 20 22 11 48 19 58 20 9 0 17 5 17 10 0 6 7 10 15 10
16 0 124 42 157 60 10 6 24 10 31 10 18 0 150 68 159 83 4 7 8 22 8 35 0 21 4
22 69 22 98 0 101 18 4 22 l-77 3 -9 35 c-22 86 -20 120 8 176 24 47 46 71
113 125 6 5 12 7 12 3 0 -3 7 -1 15 6 13 11 15 67 15 390 l0 379 -26 20 c-21
17 -41 21 -98 21 -49 1 -83 7 -111 20 -22 11 -45 19 -51 20 -7 0 -25 7 -40 15
-16 8 -38 15 -49 15 -12 0 -26 5 -33 12 -7 7 -55 13 -119 15 -86 3 -114 1
-138 -12z m245 -15 c25 -6 59 -17 75 -24 17 -8 65 -26 108 -42 l77 -29 0 -392
0 -393 -453 0 c-339 0 -456 3 -465 12 -18 18 -17 412 1 427 9 7 110 12 302 13
221 2 289 6 293 16 2 7 -12 28 -31 47 l-35 35 -196 0 -196 0 0 48 c0 48 1 50
88 134 89 87 148 130 211 154 40 15 148 12 221 -6z m381 -100 c18 -10 19 -25
19 -389 0 -426 7 -391 -81 -391 l-49 0 0 395 0 395 46 0 c25 0 54 -5 65 -10z"/>
<path d="M3690 2700 c0 -7 42 -56 93 -108 191 -196 343 -313 502 -386 44 -21
87 -41 96 -46 9 -5 45 -14 80 -21 35 -6 73 -15 84 -20 25 -11 141 -16 150 -7
4 3 -1 5 -12 4 -10 -2 -22 0 -28 4 -5 4 -42 10 -81 13 -149 12 -344 99 -519
231 -85 65 -283 251 -318 300 l-21 29 95 -7 c52 -4 96 -11 97 -16 2 -6 12 -10
22 -10 10 0 35 -16 56 -35 42 -37 169 -105 196 -105 9 0 20 -4 23 -10 3 -5 28
-12 56 -16 27 -4 52 -11 55 -15 3 -5 28 -9 55 -9 71 0 52 16 -28 23 -61 6 -95
16 -198 56 -44 17 -85 41 -130 75 -73 57 -122 73 -252 83 -55 4 -73 2 -73 -7z"/>
<path d="M4300 2694 c0 -8 5 -12 10 -9 6 4 8 11 5 16 -9 14 -15 11 -15 -7z"/>
<path d="M8294 2620 l7 -90 -28 0 c-35 0 -58 -14 -48 -29 5 -9 10 -8 18 3 7 8
26 16 42 18 33 3 33 3 20 111 -8 57 -8 57 19 57 15 0 25 -5 24 -12 -2 -6 6
-13 17 -15 12 -3 16 -1 9 4 -6 4 -13 16 -17 26 -4 11 -17 17 -38 17 l-32 0 7
-90z"/>
<path d="M6258 2683 l72 -4 0 -322 0 -323 -46 -13 c-41 -12 -49 -12 -80 5
l-35 19 3 317 c2 175 0 318 -4 318 -9 0 -11 -621 -2 -644 11 -27 66 -38 135
-26 34 6 69 15 78 20 9 4 39 16 66 26 74 25 252 112 313 152 50 34 63 54 42
67 -5 3 -10 -2 -10 -12 0 -17 -17 -29 -97 -75 -78 -43 -108 -58 -120 -58 -7 0
-13 -4 -13 -10 0 -5 -5 -10 -11 -10 -6 0 -25 -7 -42 -15 -50 -22 -120 -47
-142 -48 -20 -2 -20 4 -20 313 l0 315 114 3 c69 2 118 -1 125 -8 5 -5 18 -10
28 -10 27 0 102 -74 121 -117 28 -68 47 -141 47 -182 0 -22 4 -42 9 -45 10 -7
6 49 -9 135 -18 96 -59 165 -124 207 l-41 27 -215 1 c-118 0 -182 -1 -142 -3z"/>
<path d="M8823 2614 c7 -73 52 -363 62 -394 3 -8 5 -18 6 -22 0 -4 10 -31 21
-60 11 -29 20 -61 20 -70 -1 -18 9 -23 20 -12 3 3 -3 28 -15 57 -34 88 -50
159 -86 387 -5 30 -10 78 -10 107 -1 28 -6 55 -12 59 -8 4 -9 -11 -6 -52z"/>
<path d="M4620 2650 c-8 -5 -11 -12 -7 -16 4 -4 13 -2 19 4 15 15 7 24 -12 12z"/>
<path d="M1496 2632 c-5 -8 -9 -377 -4 -397 1 -5 5 82 8 195 3 113 4 206 4
208 -1 2 -5 -1 -8 -6z"/>
<path d="M2970 2315 l0 -206 38 3 37 3 0 200 0 200 -37 3 -38 3 0 -206z m70 0
l0 -185 -30 0 -30 0 0 185 0 185 30 0 30 0 0 -185z"/>
<path d="M4440 2471 c8 -6 45 -11 83 -11 75 0 107 -19 107 -65 0 -33 25 -81
45 -89 9 -3 29 -6 43 -5 l27 1 -30 10 c-47 16 -65 38 -65 75 0 23 -8 42 -25
58 -20 21 -34 25 -87 25 -35 0 -74 3 -88 6 -20 4 -22 3 -10 -5z"/>
<path d="M8232 2450 c0 -19 2 -27 5 -17 2 9 2 25 0 35 -3 9 -5 1 -5 -18z"/>
<path d="M4710 2405 l0 -65 135 0 135 0 0 65 0 65 -135 0 -135 0 0 -65z m260
5 l0 -50 -125 0 -125 0 0 50 0 50 125 0 125 0 0 -50z"/>
<path d="M1172 2283 c2 -179 6 -158 10 60 2 64 0 117 -4 117 -5 0 -7 -80 -6
-177z"/>
<path d="M4798 2298 c-8 -5 1 -8 24 -8 38 0 78 -29 78 -56 0 -25 -23 -64 -47
-79 -20 -13 -90 -33 -130 -37 -31 -3 2 -12 35 -10 45 4 100 28 126 54 27 29
33 99 10 119 -22 19 -78 29 -96 17z"/>
<path d="M1480 2134 c-13 -33 -13 -374 0 -374 5 0 10 81 12 200 2 110 2 200 0
200 -1 0 -7 -12 -12 -26z"/>
<path d="M7525 2110 c-16 -4 -73 -8 -125 -10 -63 -1 -88 -4 -75 -10 28 -12
173 -12 180 0 3 6 19 10 36 10 16 0 29 5 29 10 0 11 -2 11 -45 0z"/>
<path d="M10481 2108 l-63 -10 7 -61 c3 -33 13 -70 20 -81 13 -18 14 -16 8 20
-3 21 -10 47 -14 56 -5 9 -9 23 -9 30 0 17 55 38 98 38 17 0 34 5 37 10 7 11
4 11 -84 -2z"/>
<path d="M4825 2090 c-23 -15 -48 -20 -105 -21 -51 0 -69 -3 -55 -9 41 -18
118 -11 162 14 46 27 52 24 71 -29 l10 -30 1 32 c1 32 -20 63 -42 63 -7 0 -25
-9 -42 -20z"/>
<path d="M7602 2103 c33 -5 75 -55 81 -98 4 -28 4 -27 6 7 2 51 -39 99 -82 97
-31 -2 -31 -2 -5 -6z"/>
<path d="M10280 2075 c-41 -7 -75 -13 -75 -15 0 -1 -49 -11 -110 -21 -60 -11
-128 -23 -150 -28 -35 -7 -36 -9 -10 -9 17 -1 53 3 80 9 28 5 61 11 75 13 14
2 63 12 110 21 47 9 102 19 123 22 36 5 37 4 37 -25 0 -26 -4 -31 -32 -37 -37
-7 -51 -12 -123 -45 -57 -25 -135 -76 -184 -120 -53 -47 -21 -35 51 19 78 59
168 108 214 117 19 3 37 10 40 15 3 5 14 9 25 9 16 0 19 7 19 45 0 25 -3 44
-7 44 -5 -1 -42 -7 -83 -14z"/>
<path d="M9406 2072 c-2 -4 26 -6 62 -4 93 5 101 10 15 11 -39 1 -74 -3 -77
-7z"/>
<path d="M8750 2050 l-145 -6 152 -2 c93 -1 154 2 158 8 3 6 0 9 -7 8 -7 -1
-78 -5 -158 -8z"/>
<path d="M8580 2039 c0 -5 5 -7 10 -4 6 3 10 8 10 11 0 2 -4 4 -10 4 -5 0 -10
-5 -10 -11z"/>
<path d="M8398 2035 c-3 -3 -31 -7 -62 -9 -31 -2 -60 -7 -64 -11 -4 -4 25 -5
63 -1 39 3 101 8 139 11 94 6 96 15 4 15 -41 0 -77 -2 -80 -5z"/>
<path d="M1165 2018 c-8 -21 -11 -358 -3 -358 4 0 8 83 10 185 2 102 2 185 0
185 -1 0 -5 -6 -7 -12z"/>
<path d="M9813 1987 l-33 -11 2 -86 2 -85 3 78 c4 73 6 78 29 87 14 6 39 10
55 10 16 0 29 5 29 10 0 12 -44 11 -87 -3z"/>
<path d="M9675 1961 c-3 -5 -50 -13 -105 -17 -55 -3 -103 -11 -106 -15 -7 -12
82 -12 104 0 9 4 45 11 79 14 l62 7 4 -73 3 -72 2 83 c2 75 0 82 -17 82 -11 0
-22 -4 -26 -9z"/>
<path d="M9439 1925 c-3 -2 -67 -5 -143 -6 -75 0 -135 -3 -132 -6 6 -6 279 -4
285 3 2 2 2 6 -1 9 -2 3 -7 3 -9 0z"/>
<path d="M8373 1913 c-24 -2 -43 -9 -43 -15 0 -6 15 -8 43 -3 72 12 547 17
548 5 1 -5 2 -55 3 -109 0 -55 4 -103 9 -107 4 -4 7 47 7 114 l0 122 -262 -2
c-145 -1 -282 -3 -305 -5z"/>
<path d="M9002 1798 l2 -123 3 118 4 118 54 -2 c30 -1 57 0 60 3 3 2 -24 6
-60 7 l-65 2 2 -123z"/>
<path d="M4893 1880 l-11 -29 -276 -3 c-249 -3 -277 -5 -293 -21 -17 -16 -18
-44 -18 -335 l-1 -317 6 305 c3 177 9 311 15 320 25 37 50 40 312 40 142 0
263 4 269 8 12 8 25 62 15 62 -4 0 -12 -13 -18 -30z"/>
<path d="M8278 1895 c-3 -3 -43 -12 -89 -21 -46 -8 -109 -19 -139 -24 -30 -6
-64 -14 -75 -19 -11 -5 -42 -13 -69 -16 -27 -4 -56 -11 -65 -15 -9 -5 -41 -14
-71 -19 -55 -10 -167 -35 -290 -66 -36 -9 -90 -21 -120 -27 -30 -6 -59 -14
-65 -18 -5 -4 -30 -11 -55 -14 -25 -4 -54 -11 -65 -16 -11 -5 -51 -15 -90 -23
-38 -9 -99 -22 -135 -31 -36 -9 -87 -21 -115 -27 -27 -5 -59 -14 -70 -19 -11
-5 -51 -14 -90 -20 -65 -11 -88 -16 -140 -35 -11 -4 -29 -9 -40 -11 -11 -1
-32 -6 -47 -9 -25 -7 -28 -5 -28 19 0 14 -4 26 -10 26 -5 0 -10 -11 -10 -25 0
-22 -5 -25 -37 -26 -24 -1 -29 -3 -15 -6 32 -6 27 -19 -9 -27 -48 -9 -49 -9
-49 36 0 38 -1 40 -13 23 -10 -12 -16 -14 -21 -7 -8 14 -26 16 -26 4 0 -5 11
-14 25 -20 25 -12 34 -45 15 -57 -5 -3 -10 0 -10 7 0 7 -9 19 -20 26 -24 15
-26 5 -4 -19 14 -16 13 -18 -15 -32 -31 -16 -49 -8 -34 16 10 16 11 57 1 57
-13 0 -9 28 5 33 24 9 0 16 -28 9 -23 -7 -26 -10 -12 -15 22 -8 22 -27 0 -27
-13 0 -14 -3 -6 -11 9 -9 8 -19 -3 -40 -15 -30 -7 -38 14 -17 9 9 12 8 12 -5
0 -10 -10 -21 -22 -26 -28 -10 -98 -3 -116 12 -10 8 -15 8 -20 0 -4 -6 -23
-13 -42 -16 -19 -2 -3 -5 36 -5 39 -1 74 -5 77 -9 7 -6 -32 -23 -100 -44 -18
-5 -45 -16 -60 -24 -15 -8 -33 -15 -39 -15 -7 0 -25 -7 -40 -15 -16 -8 -36
-15 -45 -15 -8 0 -19 -4 -25 -8 -5 -5 -45 -21 -89 -37 -44 -15 -84 -32 -89
-36 -6 -5 -16 -9 -24 -9 -8 0 -28 -7 -45 -14 -46 -21 -213 -86 -221 -86 -8 0
-91 -35 -116 -49 -9 -5 -30 -12 -48 -16 -18 -3 -32 -11 -32 -16 0 -5 -7 -9
-16 -9 -14 0 -190 -70 -226 -90 -11 -6 -640 -10 -1723 -10 -1598 0 -1705 -1
-1705 -17 0 -13 3 -14 12 -5 9 9 403 12 1710 12 l1699 0 62 25 c34 14 71 30
82 35 49 22 117 50 210 85 55 21 104 42 109 47 6 4 16 8 24 8 7 0 34 9 60 21
89 39 194 79 207 79 6 1 28 9 50 20 22 11 47 19 56 20 8 0 19 4 25 8 5 5 32
17 59 27 28 9 64 23 80 30 35 14 114 44 202 75 35 12 69 20 77 17 8 -3 17 0
19 7 3 7 24 18 47 24 38 9 42 8 50 -11 l9 -22 0 22 c1 15 15 30 44 48 24 14
47 25 50 25 18 0 4 -31 -24 -54 -17 -14 -29 -32 -26 -39 3 -7 19 3 43 28 l39
41 39 -41 c23 -24 40 -35 43 -28 2 7 -12 26 -31 44 -20 17 -36 36 -36 43 0 13
166 63 176 53 12 -11 -16 -71 -48 -104 -25 -25 -28 -33 -15 -33 10 0 30 18 45
40 15 21 29 39 32 39 3 0 17 -18 32 -39 15 -22 35 -40 43 -40 21 0 19 4 -14
38 -35 34 -57 102 -38 114 6 4 22 8 34 8 12 0 24 4 28 9 3 5 30 13 60 16 31 4
57 11 60 15 3 5 29 11 58 15 28 4 57 10 62 14 9 6 101 27 220 52 28 5 57 13
65 16 8 4 40 12 70 19 30 7 82 19 115 28 136 34 233 57 290 67 33 6 65 15 70
19 6 4 35 11 65 15 30 4 61 11 70 16 8 4 41 13 73 19 31 5 83 15 115 20 31 6
64 15 73 19 8 5 46 12 82 16 37 4 67 11 67 16 0 10 -33 12 -42 4z"/>
<path d="M1462 1458 c2 -194 6 -171 10 65 2 70 0 127 -4 127 -5 0 -7 -87 -6
-192z"/>
<path d="M1148 1564 c-5 -4 -8 -91 -7 -193 0 -129 3 -179 10 -162 11 28 8 366
-3 355z"/>
<path d="M6740 1423 l0 -68 75 0 75 0 0 68 0 67 -75 0 -75 0 0 -67z m135 2 l0
-50 -60 0 -60 0 -3 39 c-5 62 0 67 65 64 l58 -3 0 -50z"/>
<path d="M6021 1424 c0 -11 3 -14 6 -6 3 7 2 16 -1 19 -3 4 -6 -2 -5 -13z"/>
<path d="M5972 1215 c-20 -77 -16 -103 25 -146 41 -43 76 -50 93 -19 10 18 21
20 108 20 81 0 101 -4 122 -20 33 -26 49 -24 88 9 l33 28 -3 84 -3 84 -225 3
-226 2 -12 -45z m78 -30 c0 -16 -35 -21 -44 -6 -8 12 4 21 26 21 10 0 18 -7
18 -15z m90 0 c0 -8 -9 -15 -20 -15 -11 0 -20 7 -20 15 0 8 9 15 20 15 11 0
20 -7 20 -15z m80 0 c0 -8 -6 -15 -14 -15 -17 0 -28 14 -19 24 12 12 33 6 33
-9z m90 0 c0 -8 -6 -15 -14 -15 -17 0 -28 14 -19 24 12 12 33 6 33 -9z m90 0
c0 -8 -9 -15 -20 -15 -11 0 -20 7 -20 15 0 8 9 15 20 15 11 0 20 -7 20 -15z"/>
<path d="M1456 1182 c-9 -15 -9 -216 0 -219 5 -2 9 49 9 112 0 63 -1 115 -2
115 -1 0 -4 -4 -7 -8z"/>
<path d="M1130 1053 c0 -40 -5 -74 -12 -81 -9 -9 -8 -12 4 -12 13 0 17 14 20
76 2 42 0 78 -4 81 -5 2 -8 -27 -8 -64z"/>
<path d="M1957 973 c-5 -7 979 -7 2343 0 283 1 -127 3 -912 5 -785 1 -1429 -1
-1431 -5z"/>
<path d="M910 830 c0 -6 40 -10 101 -10 l102 0 -6 -41 c-3 -24 -17 -56 -34
-77 -32 -39 -130 -111 -151 -112 -8 0 -28 -6 -45 -14 -55 -25 -199 -55 -269
-55 -28 -1 -48 -6 -48 -12 0 -7 16 -9 48 -6 92 11 197 29 207 37 6 4 26 11 45
15 58 12 153 62 193 101 46 45 77 106 77 151 l0 33 -110 0 c-67 0 -110 -4
-110 -10z"/>
<path d="M1428 772 c-14 -103 -156 -259 -303 -332 -27 -14 -52 -28 -55 -32 -3
-3 -18 -10 -33 -13 -15 -4 -30 -11 -33 -16 -3 -5 -12 -9 -21 -9 -8 0 -29 -7
-46 -15 -43 -20 -275 -73 -359 -82 -27 -3 -48 -8 -48 -12 0 -8 136 5 160 16
16 7 16 6 110 24 36 6 70 15 75 19 6 5 27 11 48 15 20 4 40 11 43 16 3 5 12 9
21 9 47 0 255 123 325 193 79 77 169 257 129 257 -4 0 -11 -17 -13 -38z"/>
<path d="M415 500 c-60 -3 -103 -7 -95 -10 19 -6 228 3 215 10 -5 3 -59 3
-120 0z"/>
<path d="M226 492 c-3 -5 1 -9 9 -9 8 0 12 4 9 9 -3 4 -7 8 -9 8 -2 0 -6 -4
-9 -8z"/>
<path d="M400 250 c-11 -7 3 -10 47 -10 34 0 65 5 68 10 8 13 -95 13 -115 0z"/>
<path d="M208 233 c34 -2 88 -2 120 0 31 2 3 3 -63 3 -66 0 -92 -1 -57 -3z"/>
</g>
</svg>
